<svg width="24" height="24" viewBox="0 0 24 24" fill="none" xmlns="http://www.w3.org/2000/svg">
<path fill-rule="evenodd" clip-rule="evenodd" d="M13.0106 4C14.6646 4 16.0106 5.346 16.0106 7C16.0106 8.654 14.6646 10 13.0106 10C11.3566 10 10.0106 8.654 10.0106 7C10.0106 5.346 11.3566 4 13.0106 4ZM22.9676 20.726C21.8366 16.85 19.9606 12.494 15.4816 11.32C16.9846 10.457 18.0106 8.854 18.0106 7C18.0106 4.243 15.7676 2 13.0106 2C10.2536 2 8.0106 4.243 8.0106 7C8.0106 8.859 9.0426 10.466 10.5526 11.327C9.8966 11.504 9.2726 11.746 8.6936 12.07C8.2106 12.34 8.0386 12.949 8.3096 13.431C8.5776 13.911 9.1886 14.086 9.6696 13.814C10.6426 13.271 11.7346 13.006 13.0076 13.006C16.9496 13.006 19.3546 15.482 21.0476 21.286C21.1746 21.723 21.5736 22.006 22.0076 22.006C22.0996 22.006 22.1946 21.993 22.2876 21.966C22.8186 21.812 23.1216 21.256 22.9676 20.726Z" fill="black"/>
<path fill-rule="evenodd" clip-rule="evenodd" d="M6.99889 17.003H8.99889C9.55089 17.003 9.99889 17.451 9.99889 18.003C9.99889 18.556 9.55089 19.003 8.99889 19.003H6.99889V21.003C6.99889 21.555 6.55189 22.003 5.99889 22.003C5.44689 22.003 4.99889 21.555 4.99889 21.003V19.003H2.99989C2.44789 19.003 1.99989 18.556 1.99989 18.003C1.99989 17.451 2.44789 17.003 2.99989 17.003H4.99889V15.004C4.99889 14.451 5.44689 14.004 5.99889 14.004C6.55189 14.004 6.99889 14.451 6.99889 15.004V17.003Z" fill="black"/>
</svg>
