<svg width="24" height="24" viewBox="0 0 24 24" fill="none" xmlns="http://www.w3.org/2000/svg">
<path fill-rule="evenodd" clip-rule="evenodd" d="M12.8787 6.07279L12.8787 20.1C12.8787 20.5971 12.4853 21 12 21C11.5147 21 11.1213 20.5971 11.1213 20.1L11.1213 6.07279L7.5 9.78198C7.15686 10.1335 6.60051 10.1335 6.25736 9.78198C5.91422 9.43051 5.91422 8.86066 6.25736 8.50919L11.2279 3.41802C11.2535 3.39183 11.2802 3.3676 11.308 3.34531C11.4688 3.13509 11.719 3 12 3C12.281 3 12.5312 3.13509 12.692 3.34531C12.7198 3.3676 12.7465 3.39183 12.7721 3.41802L17.7426 8.50919C18.0858 8.86066 18.0858 9.43051 17.7426 9.78198C17.3995 10.1335 16.8431 10.1335 16.5 9.78198L12.8787 6.07279Z" fill="black"/>
</svg>
