<svg width="24" height="24" viewBox="0 0 24 24" fill="none" xmlns="http://www.w3.org/2000/svg">
<path fill-rule="evenodd" clip-rule="evenodd" d="M6.07279 11.1213L20.1 11.1213C20.5971 11.1213 21 11.5147 21 12C21 12.4853 20.5971 12.8787 20.1 12.8787L6.07279 12.8787L9.78198 16.5C10.1335 16.8431 10.1335 17.3995 9.78198 17.7426C9.43051 18.0858 8.86066 18.0858 8.50919 17.7426L3.41802 12.7721C3.39183 12.7465 3.3676 12.7198 3.34531 12.692C3.13509 12.5312 3 12.281 3 12C3 11.719 3.13509 11.4688 3.34531 11.308C3.3676 11.2802 3.39183 11.2535 3.41802 11.2279L8.50919 6.25736C8.86066 5.91421 9.43051 5.91421 9.78198 6.25736C10.1335 6.6005 10.1335 7.15685 9.78198 7.5L6.07279 11.1213Z" fill="black"/>
</svg>
