<svg width="24" height="24" viewBox="0 0 24 24" fill="none" xmlns="http://www.w3.org/2000/svg">
<path fill-rule="evenodd" clip-rule="evenodd" d="M17.9272 12.8787L3.9 12.8787C3.40294 12.8787 3 12.4853 3 12C3 11.5147 3.40294 11.1213 3.9 11.1213L17.9272 11.1213L14.218 7.5C13.8665 7.15685 13.8665 6.6005 14.218 6.25736C14.5695 5.91421 15.1393 5.91421 15.4908 6.25736L20.582 11.2279C20.6082 11.2535 20.6324 11.2802 20.6547 11.308C20.8649 11.4688 21 11.719 21 12C21 12.281 20.8649 12.5312 20.6547 12.692C20.6324 12.7198 20.6082 12.7465 20.582 12.7721L15.4908 17.7426C15.1393 18.0858 14.5695 18.0858 14.218 17.7426C13.8665 17.3995 13.8665 16.8431 14.218 16.5L17.9272 12.8787Z" fill="black"/>
</svg>
