<svg width="24" height="24" viewBox="0 0 24 24" fill="none" xmlns="http://www.w3.org/2000/svg">
<path fill-rule="evenodd" clip-rule="evenodd" d="M12 2.66666C10.4087 2.66666 8.88253 3.2988 7.75731 4.42402C6.6321 5.54923 5.99996 7.07536 5.99996 8.66666C5.99996 11.436 5.40789 13.143 4.87206 14.1253C4.60277 14.619 4.34218 14.9399 4.16463 15.1273C4.07559 15.2213 4.00674 15.2825 3.96719 15.3154C3.9479 15.3315 3.93555 15.3409 3.9312 15.3441C3.57444 15.5908 3.41681 16.0401 3.54286 16.4564C3.67056 16.8782 4.05929 17.1667 4.49996 17.1667H19.5C19.9406 17.1667 20.3293 16.8782 20.457 16.4564C20.5831 16.0401 20.4255 15.5908 20.0687 15.3441C20.0644 15.3409 20.052 15.3315 20.0327 15.3154C19.9932 15.2825 19.9243 15.2213 19.8353 15.1273C19.6577 14.9399 19.3971 14.619 19.1279 14.1253C18.592 13.143 18 11.436 18 8.66666C18 7.07536 17.3678 5.54923 16.2426 4.42402C15.1174 3.2988 13.5913 2.66666 12 2.66666ZM3.9312 15.3441L3.93654 15.3405L3.94045 15.3378L3.94274 15.3363L3.94526 15.3346L3.9312 15.3441ZM6.62785 15.083C6.61245 15.1112 6.59703 15.1391 6.5816 15.1667H17.4183C17.4029 15.1391 17.3875 15.1112 17.3721 15.083C16.6579 13.7737 16 11.7307 16 8.66666C16 7.60579 15.5785 6.58837 14.8284 5.83823C14.0782 5.08808 13.0608 4.66666 12 4.66666C10.9391 4.66666 9.92167 5.08808 9.17153 5.83823C8.42138 6.58837 7.99996 7.60579 7.99996 8.66666C7.99996 11.7307 7.34202 13.7737 6.62785 15.083ZM11.4234 18.9982C11.1463 18.5205 10.5343 18.3579 10.0566 18.635C9.57889 18.9121 9.41627 19.5241 9.69339 20.0018C9.92781 20.4059 10.2643 20.7413 10.6691 20.9745C11.0739 21.2077 11.5329 21.3304 12.0001 21.3304C12.4672 21.3304 12.9262 21.2077 13.331 20.9745C13.7359 20.7413 14.0723 20.4059 14.3067 20.0018C14.5838 19.5241 14.4212 18.9121 13.9435 18.635C13.4658 18.3579 12.8538 18.5205 12.5767 18.9982C12.5181 19.0993 12.434 19.1831 12.3328 19.2414C12.2316 19.2997 12.1169 19.3304 12.0001 19.3304C11.8833 19.3304 11.7685 19.2997 11.6673 19.2414C11.5661 19.1831 11.482 19.0993 11.4234 18.9982Z" fill="black"/>
</svg>
