<svg width="24" height="24" viewBox="0 0 24 24" fill="none" xmlns="http://www.w3.org/2000/svg">
<path fill-rule="evenodd" clip-rule="evenodd" d="M9.89984 17C9.71363 17 9.53582 16.925 9.40491 16.7907L5.20529 12.5029C4.93157 12.2237 4.93157 11.7715 5.20529 11.493C5.47901 11.2137 5.92144 11.2137 6.19516 11.493L9.89984 15.2757L17.8048 7.20946C18.0786 6.93018 18.521 6.93018 18.7947 7.20946C19.0684 7.48874 19.0684 7.94016 18.7947 8.21944L10.3948 16.7907C10.2639 16.925 10.0861 17 9.89984 17Z" fill="black"/>
<path fill-rule="evenodd" clip-rule="evenodd" d="M18.4376 7.55944C18.3599 7.48019 18.2396 7.48019 18.1619 7.55944L9.89972 15.9902L5.83807 11.8429C5.7604 11.7637 5.64006 11.7637 5.56238 11.8429C5.48005 11.9267 5.47896 12.0678 5.56238 12.153L9.76293 16.4417C9.80011 16.4798 9.84898 16.5 9.89984 16.5C9.9507 16.5 9.99958 16.4798 10.0368 16.4417L10.0377 16.4408L18.4376 7.86948C18.5208 7.78461 18.5208 7.64431 18.4376 7.55944ZM17.4477 6.85948C17.9175 6.38017 18.682 6.38017 19.1518 6.85948C19.6161 7.33318 19.6161 8.09573 19.1518 8.56942L10.7528 17.1397C10.7526 17.14 10.7523 17.1402 10.7521 17.1405C10.5275 17.3705 10.2211 17.5 9.89984 17.5C9.57866 17.5 9.27226 17.3705 9.0477 17.1406C9.04768 17.1406 9.04772 17.1406 9.0477 17.1406C9.04744 17.1403 9.04714 17.14 9.04688 17.1397L4.8482 12.8529C4.38423 12.3795 4.38354 11.616 4.84849 11.1427C5.31828 10.6637 6.08259 10.6638 6.55225 11.143L9.89996 14.5613L17.4477 6.85948Z" fill="black"/>
</svg>
