<svg width="24" height="24" viewBox="0 0 24 24" fill="none" xmlns="http://www.w3.org/2000/svg">
<path fill-rule="evenodd" clip-rule="evenodd" d="M6.17415 14.8415C5.94195 14.6303 5.94195 14.2878 6.17415 14.0765L11.5796 9.15845C11.8118 8.94718 12.1882 8.94718 12.4204 9.15845L17.8258 14.0765C18.0581 14.2878 18.0581 14.6303 17.8258 14.8415C17.5936 15.0528 17.2172 15.0528 16.985 14.8415L12 10.3061L7.01504 14.8415C6.78283 15.0528 6.40636 15.0528 6.17415 14.8415Z" fill="black"/>
<path fill-rule="evenodd" clip-rule="evenodd" d="M11.2431 8.78862C11.666 8.40379 12.334 8.40379 12.7569 8.78862L18.1623 13.7067C18.6126 14.1163 18.6126 14.8018 18.1623 15.2114C17.7394 15.5962 17.0714 15.5962 16.6485 15.2114L12 10.982L7.35152 15.2114C6.92856 15.5962 6.26062 15.5962 5.83767 15.2114C5.38744 14.8018 5.38744 14.1163 5.83767 13.7067L11.2431 8.78862ZM12 9.5C11.9609 9.5 11.932 9.51378 11.916 9.52828L6.51064 14.4463C6.50279 14.4535 6.50061 14.4582 6.50023 14.459C6.50061 14.4598 6.50279 14.4646 6.51064 14.4717C6.52658 14.4862 6.55546 14.5 6.59459 14.5C6.63373 14.5 6.66261 14.4862 6.67855 14.4717L11.6635 9.93622C11.8543 9.76266 12.1457 9.76266 12.3365 9.93622L17.3215 14.4717C17.3374 14.4862 17.3663 14.5 17.4054 14.5C17.4445 14.5 17.4734 14.4862 17.4894 14.4717C17.4972 14.4646 17.4994 14.4599 17.4998 14.459C17.4994 14.4582 17.4972 14.4535 17.4894 14.4463L12.084 9.52828C12.068 9.51378 12.0391 9.5 12 9.5Z" fill="black"/>
</svg>
