<svg width="24" height="24" viewBox="0 0 24 24" fill="none" xmlns="http://www.w3.org/2000/svg">
<path fill-rule="evenodd" clip-rule="evenodd" d="M17.8258 9.15845C18.0581 9.36972 18.0581 9.71225 17.8258 9.92352L12.4204 14.8416C12.1882 15.0528 11.8118 15.0528 11.5796 14.8416L6.17415 9.92352C5.94195 9.71225 5.94195 9.36972 6.17415 9.15845C6.40636 8.94718 6.78283 8.94718 7.01504 9.15845L12 13.694L16.985 9.15845C17.2172 8.94718 17.5936 8.94718 17.8258 9.15845Z" fill="black"/>
<path fill-rule="evenodd" clip-rule="evenodd" d="M18.1623 8.78862C18.6126 9.19825 18.6126 9.88372 18.1623 10.2934L12.7569 15.2114C12.334 15.5962 11.666 15.5962 11.2431 15.2114L5.83767 10.2933C5.38744 9.88372 5.38744 9.19824 5.83767 8.78862C6.26062 8.40379 6.92856 8.40379 7.35152 8.78862L12 13.018L16.6485 8.78862C17.0714 8.40379 17.7394 8.40379 18.1623 8.78862ZM17.4998 9.54096C17.4994 9.54012 17.4972 9.53542 17.4894 9.52828C17.4734 9.51378 17.4445 9.5 17.4054 9.5C17.3663 9.5 17.3374 9.51378 17.3215 9.52828L12.3365 14.0638C12.1457 14.2373 11.8543 14.2373 11.6635 14.0638L6.67855 9.52828C6.66261 9.51378 6.63372 9.5 6.59459 9.5C6.55546 9.5 6.52658 9.51378 6.51064 9.52828C6.50279 9.53542 6.50061 9.54012 6.50023 9.54096C6.50061 9.5418 6.50279 9.54654 6.51064 9.55368L11.916 14.4717C11.932 14.4862 11.9609 14.5 12 14.5C12.0391 14.5 12.068 14.4862 12.084 14.4717L17.4894 9.55368C17.4972 9.54654 17.4994 9.5418 17.4998 9.54096Z" fill="black"/>
</svg>
