<svg width="24" height="24" viewBox="0 0 24 24" fill="none" xmlns="http://www.w3.org/2000/svg">
<path fill-rule="evenodd" clip-rule="evenodd" d="M14.8415 17.8258C14.6303 18.0581 14.2878 18.0581 14.0765 17.8258L9.15845 12.4204C8.94718 12.1882 8.94718 11.8118 9.15845 11.5796L14.0765 6.17415C14.2878 5.94195 14.6303 5.94195 14.8416 6.17415C15.0528 6.40636 15.0528 6.78283 14.8416 7.01504L10.3061 12L14.8415 16.985C15.0528 17.2172 15.0528 17.5936 14.8415 17.8258Z" fill="black"/>
<path fill-rule="evenodd" clip-rule="evenodd" d="M15.2114 18.1623C14.8018 18.6126 14.1163 18.6126 13.7067 18.1623L8.78862 12.7569C8.40379 12.334 8.40379 11.666 8.78862 11.2431L13.7067 5.83767C14.1163 5.38744 14.8018 5.38744 15.2114 5.83767C15.5962 6.26063 15.5962 6.92856 15.2114 7.35152L10.982 12L15.2114 16.6485C15.5962 17.0714 15.5962 17.7394 15.2114 18.1623ZM14.459 17.4998C14.4599 17.4994 14.4646 17.4972 14.4717 17.4894C14.4862 17.4734 14.5 17.4445 14.5 17.4054C14.5 17.3663 14.4862 17.3374 14.4717 17.3215L9.93622 12.3365C9.76266 12.1457 9.76266 11.8543 9.93622 11.6635L14.4717 6.67855C14.4862 6.66261 14.5 6.63372 14.5 6.59459C14.5 6.55546 14.4862 6.52658 14.4717 6.51064C14.4646 6.50279 14.4599 6.50061 14.459 6.50023C14.4582 6.50061 14.4535 6.50279 14.4463 6.51064L9.52828 11.916C9.51378 11.932 9.5 11.9609 9.5 12C9.5 12.0391 9.51378 12.068 9.52828 12.084L14.4463 17.4894C14.4535 17.4972 14.4582 17.4994 14.459 17.4998Z" fill="black"/>
</svg>
