<svg width="24" height="24" viewBox="0 0 24 24" fill="none" xmlns="http://www.w3.org/2000/svg">
<path fill-rule="evenodd" clip-rule="evenodd" d="M8.99709 15.0039C8.67409 15.0039 8.35709 14.8479 8.16409 14.5589C7.85709 14.0999 7.98109 13.4789 8.44109 13.1719L11.0001 11.4649V7.0139C11.0001 6.4609 11.4471 6.0139 12.0001 6.0139C12.5531 6.0139 13.0001 6.4609 13.0001 7.0139V11.9999C13.0001 12.3339 12.8331 12.6469 12.5551 12.8319L9.55109 14.8359C9.38109 14.9489 9.18709 15.0039 8.99709 15.0039Z" fill="black"/>
<path fill-rule="evenodd" clip-rule="evenodd" d="M12 4C7.589 4 4 7.589 4 12C4 16.411 7.589 20 12 20C16.411 20 20 16.411 20 12C20 7.589 16.411 4 12 4ZM12 22C6.486 22 2 17.514 2 12C2 6.486 6.486 2 12 2C17.514 2 22 6.486 22 12C22 17.514 17.514 22 12 22Z" fill="black"/>
</svg>
