<svg width="24" height="24" viewBox="0 0 24 24" fill="none" xmlns="http://www.w3.org/2000/svg">
<path fill-rule="evenodd" clip-rule="evenodd" d="M13.2735 12L20.7373 19.4639C21.0875 19.8149 21.0875 20.3865 20.7373 20.7367C20.3862 21.0878 19.8146 21.0878 19.4636 20.7367L12 13.2734L4.53643 20.7367C4.18537 21.0878 3.61377 21.0878 3.26271 20.7367C2.91255 20.3865 2.91255 19.8149 3.26271 19.4639L10.7265 12L3.26262 4.53636C2.91246 4.1853 2.91246 3.61369 3.26262 3.26262C3.61368 2.91246 4.18528 2.91246 4.53634 3.26262L12 10.7264L19.4637 3.26262C19.8147 2.91246 20.3863 2.91246 20.7374 3.26262C21.0875 3.61369 21.0875 4.1853 20.7374 4.53636L13.2735 12Z" fill="black"/>
<path d="M2.90952 2.90862C3.45574 2.36379 4.34322 2.36379 4.88944 2.90862L12 10.0193L19.1101 2.90907C19.6563 2.36425 20.5443 2.36379 21.0905 2.90862L21.0914 2.90953C21.6362 3.45575 21.6362 4.34324 21.0914 4.88946L13.9806 12L21.0908 19.1103C21.6354 19.6563 21.6365 20.5446 21.0908 21.0903C20.5445 21.6366 19.6563 21.6366 19.11 21.0903L12 13.9805L4.88997 21.0903C4.34366 21.6366 3.45548 21.6366 2.90915 21.0903C2.36349 20.5446 2.36414 19.6567 2.9087 19.1108L10.0194 12L2.90907 4.88992C2.36426 4.3437 2.3638 3.45575 2.90861 2.90953L2.90952 2.90862Z" fill="black"/>
</svg>
