<svg width="24" height="24" viewBox="0 0 24 24" fill="none" xmlns="http://www.w3.org/2000/svg">
<path fill-rule="evenodd" clip-rule="evenodd" d="M10 18.0097C10.553 18.0097 11 17.5627 11 17.0097V11.0097C11 10.4567 10.553 10.0097 10 10.0097C9.447 10.0097 9 10.4567 9 11.0097V17.0097C9 17.5627 9.447 18.0097 10 18.0097Z" fill="black"/>
<path fill-rule="evenodd" clip-rule="evenodd" d="M14.001 18.0097C14.554 18.0097 15.001 17.5627 15.001 17.0097V11.0097C15.001 10.4567 14.554 10.0097 14.001 10.0097C13.448 10.0097 13.001 10.4567 13.001 11.0097V17.0097C13.001 17.5627 13.448 18.0097 14.001 18.0097Z" fill="black"/>
<path fill-rule="evenodd" clip-rule="evenodd" d="M16.5127 19.5508C16.4997 19.8048 16.2547 20.0038 16.0157 20.0018H7.96869C7.73869 19.9758 7.50769 19.8058 7.49469 19.5438L6.84669 7.99979H17.1337L16.5127 19.5508ZM9.9967 4.61579C9.9967 4.28179 10.2797 3.99979 10.6137 3.99979H13.3817C13.7217 3.99979 13.9987 4.27679 13.9987 4.61579V5.99979H9.9967V4.61579ZM19.9997 5.99979H18.2617C18.2557 5.99979 18.2497 5.99479 18.2427 5.99479C18.2307 5.99379 18.2207 5.99979 18.2077 5.99979H15.9987V4.61579C15.9987 3.17379 14.8257 1.99979 13.3817 1.99979H10.6137C9.17069 1.99979 7.9967 3.17379 7.9967 4.61579V5.99979H3.99969C3.44769 5.99979 2.99969 6.44679 2.99969 6.99979C2.99969 7.55279 3.44769 7.99979 3.99969 7.99979H4.84469L5.49769 19.6468C5.56069 20.9568 6.65869 22.0028 7.9377 22.0028C7.9557 22.0028 7.97369 22.0018 7.99169 22.0018H15.9917H16.0487C17.3487 22.0018 18.4477 20.9578 18.5107 19.6538L19.1367 7.99979H19.9997C20.5527 7.99979 20.9997 7.55279 20.9997 6.99979C20.9997 6.44679 20.5527 5.99979 19.9997 5.99979Z" fill="black"/>
</svg>
