<svg width="24" height="24" viewBox="0 0 24 24" fill="none" xmlns="http://www.w3.org/2000/svg">
<path d="M6.7 18.29C7.09 18.68 7.72 18.68 8.11 18.29L12 14.42L15.88 18.3C16.27 18.69 16.9 18.69 17.29 18.3C17.68 17.91 17.68 17.28 17.29 16.89L12.7 12.3C12.6075 12.2073 12.4976 12.1337 12.3766 12.0835C12.2557 12.0333 12.126 12.0075 11.995 12.0075C11.864 12.0075 11.7343 12.0333 11.6134 12.0835C11.4924 12.1337 11.3825 12.2073 11.29 12.3L6.7 16.88C6.31 17.27 6.31 17.9 6.7 18.29Z" fill="black"/>
<path d="M6.7 11.7C7.09 12.09 7.72 12.09 8.11 11.7L12 7.83003L15.88 11.71C16.27 12.1 16.9 12.1 17.29 11.71C17.68 11.32 17.68 10.69 17.29 10.3L12.7 5.71003C12.6075 5.61731 12.4976 5.54375 12.3766 5.49356C12.2557 5.44338 12.126 5.41754 11.995 5.41754C11.864 5.41754 11.7343 5.44338 11.6134 5.49356C11.4924 5.54375 11.3825 5.61731 11.29 5.71003L6.7 10.29C6.31 10.68 6.31 11.31 6.7 11.7Z" fill="black"/>
</svg>
