<svg width="24" height="24" viewBox="0 0 24 24" fill="none" xmlns="http://www.w3.org/2000/svg">
<path fill-rule="evenodd" clip-rule="evenodd" d="M12.0031 4C13.6571 4 15.0031 5.345 15.0031 7C15.0031 8.654 13.6571 10 12.0031 10C10.3491 10 9.0031 8.654 9.0031 7C9.0031 5.345 10.3491 4 12.0031 4ZM16.3141 12.069C15.7341 11.746 15.1121 11.504 14.4591 11.328C15.9701 10.467 17.0031 8.86 17.0031 7C17.0031 4.243 14.7601 2 12.0031 2C9.2461 2 7.0031 4.243 7.0031 7C7.0031 8.853 8.0281 10.455 9.5301 11.319C5.0471 12.491 3.1701 16.848 2.0401 20.725C1.8861 21.255 2.1901 21.811 2.7201 21.965C2.8141 21.993 2.9081 22.005 3.0001 22.005C3.4341 22.005 3.8331 21.722 3.9601 21.286C5.6521 15.482 8.0571 13.005 12.0001 13.005C13.2721 13.005 14.3631 13.27 15.3371 13.815C15.8181 14.083 16.4281 13.911 16.6981 13.43C16.9681 12.948 16.7951 12.338 16.3141 12.069Z" fill="black"/>
<path fill-rule="evenodd" clip-rule="evenodd" d="M13.3986 20.3853L13.4066 21.7273C13.4066 21.8783 13.5296 22.0003 13.6806 22.0003H15.0136C15.0866 22.0003 15.1566 21.9713 15.2086 21.9193L19.2366 17.8913C19.3946 17.7333 19.3946 17.4773 19.2366 17.3193L18.0546 16.1363C17.9106 15.9923 17.6766 15.9923 17.5326 16.1363L13.4796 20.1903C13.4276 20.2413 13.3986 20.3123 13.3986 20.3853Z" fill="black"/>
<path fill-rule="evenodd" clip-rule="evenodd" d="M20.4415 16.6861L21.9205 15.2071C22.0315 15.0971 22.0315 14.9161 21.9205 14.8051L20.5925 13.4791C20.4825 13.3681 20.3015 13.3681 20.1905 13.4791L18.7125 14.9571C18.6005 15.0681 18.6005 15.2491 18.7125 15.3601L20.0385 16.6861C20.1495 16.7971 20.3305 16.7971 20.4415 16.6861Z" fill="black"/>
</svg>
