<!-- Generated by IcoMoon.io -->
<svg version="1.1" xmlns="http://www.w3.org/2000/svg" width="1024" height="1024" viewBox="0 0 1024 1024">
<g id="icomoon-ignore">
</g>
<path fill="#a1a3a7" d="M115.086 358.86c-18.028 0-27.040-9.305-27.040-27.926v-113.908c0-42.845 10.938-75.054 32.802-96.628s54.371-32.355 97.511-32.355h113.908c18.618 0 27.926 9.014 27.926 27.040 0 18.319-9.305 27.479-27.926 27.479h-112.581c-25.119 0-44.322 6.498-57.619 19.505-13.003 13.003-19.505 32.355-19.505 58.066v110.809c0 18.618-9.16 27.926-27.479 27.926zM908.475 358.86c-18.026 0-27.040-9.305-27.040-27.926v-110.809c0-25.711-6.797-45.059-20.386-58.066s-32.654-19.505-57.178-19.505h-112.143c-18.616 0-27.925-9.16-27.925-27.479 0-18.028 9.309-27.040 27.925-27.040h113.475c43.434 0 76.087 10.938 97.959 32.802 21.863 21.573 32.801 53.629 32.801 96.181v113.908c0 18.618-9.163 27.926-27.481 27.926zM218.357 935.506c-43.142 0-75.647-10.937-97.511-32.801-21.864-21.571-32.802-53.782-32.802-96.627v-113.468c0-18.618 9.014-27.931 27.040-27.931 18.319 0 27.479 9.309 27.479 27.931v110.806c0 25.711 6.498 45.058 19.505 58.069 13.297 13.003 32.5 19.504 57.619 19.504h112.581c18.618 0 27.926 9.156 27.926 27.475 0 18.033-9.305 27.040-27.926 27.040h-113.908zM691.733 935.506c-18.616 0-27.925-9.010-27.925-27.040 0-18.319 9.309-27.475 27.925-27.475h112.143c24.526 0 43.581-6.5 57.178-19.504 13.589-13.003 20.386-32.357 20.386-58.069v-110.806c0-18.618 9.016-27.931 27.040-27.931 18.319 0 27.481 9.309 27.481 27.931v113.468c0 42.845-10.937 75.056-32.801 96.627-21.863 21.863-54.524 32.801-97.959 32.801h-113.475zM347.341 476.323c-8.567 0-15.657-2.662-21.272-7.974-5.323-5.323-7.974-12.559-7.974-21.718v-59.834c0-8.869 2.662-15.959 7.974-21.272 5.615-5.614 12.705-8.421 21.272-8.421s15.657 2.807 21.271 8.421c5.614 5.323 8.421 12.414 8.421 21.272v59.834c0 9.159-2.807 16.395-8.421 21.718s-12.705 7.974-21.271 7.974zM475.876 580.036c-9.159 0-16.251-2.069-21.272-6.207-5.022-4.428-7.538-10.345-7.538-17.726 0-6.498 2.069-11.821 6.207-15.959 4.429-4.429 9.898-6.647 16.395-6.647h15.069c3.255 0 6.062-1.033 8.422-3.099 2.662-2.069 3.992-5.167 3.992-9.305v-141.834c0-7.090 2.069-12.559 6.207-16.395 4.138-4.138 9.606-6.207 16.395-6.207 7.090 0 12.705 2.069 16.842 6.207 4.138 3.84 6.207 9.305 6.207 16.395v137.847c0 20.684-5.323 36.348-15.959 46.983s-26.298 15.959-46.983 15.959c-0.593 0-1.331 0-2.214 0-0.593 0-1.185 0-1.774 0zM674 476.323c-8.87 0-15.959-2.662-21.274-7.974s-7.972-12.559-7.972-21.718v-59.834c0-8.869 2.656-15.959 7.972-21.272 5.323-5.614 12.415-8.421 21.274-8.421 8.567 0 15.51 2.807 20.835 8.421 5.612 5.323 8.421 12.414 8.421 21.272v59.834c0 9.159-2.809 16.395-8.421 21.718-5.323 5.323-12.262 7.974-20.835 7.974zM508.678 723.206c-25.711 0-51.121-5.022-76.24-15.069-25.119-10.348-46.39-25.262-63.826-44.772-2.36-2.359-4.283-4.876-5.76-7.532-1.185-2.955-1.774-6.061-1.774-9.309 0-6.797 2.214-12.262 6.647-16.393 4.429-4.14 9.898-6.207 16.396-6.207 4.138 0 7.538 0.882 10.196 2.656 2.953 1.774 6.062 4.14 9.305 7.096 13.003 13.297 28.955 23.93 47.867 31.913 18.911 7.972 37.969 11.965 57.178 11.965 20.388 0 39.893-3.994 58.503-11.965 18.911-8.281 34.72-18.915 47.431-31.913 6.205-6.5 12.559-9.752 19.059-9.752 6.207 0 11.52 2.067 15.959 6.207 4.426 4.134 6.647 9.606 6.647 16.393 0 3.84-0.589 7.235-1.774 10.196-1.185 2.663-2.809 5.022-4.876 7.089-18.915 18.618-40.778 33.239-65.6 43.883-24.526 10.348-49.645 15.516-75.346 15.516z"></path>
</svg>
