<svg width="16" height="16" viewBox="0 0 16 16" fill="none" xmlns="http://www.w3.org/2000/svg">
<path d="M1.75405 5.58014C1.47132 5.58014 1.32996 5.43407 1.32996 5.14191V3.3542C1.32996 2.68178 1.50145 2.17631 1.84444 1.83778C2.18742 1.49925 2.69727 1.32999 3.37397 1.32999H5.16075C5.45275 1.32999 5.59875 1.47143 5.59875 1.75431C5.59875 2.04182 5.45275 2.18558 5.16075 2.18558H3.39483C3.00086 2.18558 2.69958 2.28761 2.49101 2.49165C2.28707 2.69569 2.18511 2.99944 2.18511 3.40289V5.14191C2.18511 5.43407 2.04142 5.58014 1.75405 5.58014ZM14.1989 5.58014C13.9162 5.58014 13.7748 5.43407 13.7748 5.14191V3.40289C13.7748 2.99944 13.6682 2.69569 13.455 2.49165C13.2418 2.28761 12.9428 2.18558 12.5581 2.18558H10.7992C10.5072 2.18558 10.3612 2.04182 10.3612 1.75431C10.3612 1.47143 10.5072 1.32999 10.7992 1.32999H12.579C13.2603 1.32999 13.7725 1.50157 14.1155 1.84474C14.4585 2.18326 14.63 2.68642 14.63 3.3542V5.14191C14.63 5.43407 14.4863 5.58014 14.1989 5.58014ZM3.37397 14.63C2.69727 14.63 2.18742 14.4584 1.84444 14.1152C1.50145 13.7767 1.32996 13.2712 1.32996 12.5988V10.8181C1.32996 10.5259 1.47132 10.3798 1.75405 10.3798C2.04142 10.3798 2.18511 10.5259 2.18511 10.8181V12.5571C2.18511 12.9605 2.28707 13.2643 2.49101 13.4683C2.69958 13.6724 3.00086 13.7744 3.39483 13.7744H5.16075C5.45275 13.7744 5.59875 13.9181 5.59875 14.2057C5.59875 14.4885 5.45275 14.63 5.16075 14.63H3.37397ZM10.7992 14.63C10.5072 14.63 10.3612 14.4885 10.3612 14.2057C10.3612 13.9181 10.5072 13.7744 10.7992 13.7744H12.5581C12.9428 13.7744 13.2418 13.6724 13.455 13.4683C13.6682 13.2643 13.7748 12.9605 13.7748 12.5571V10.8181C13.7748 10.5259 13.9162 10.3798 14.1989 10.3798C14.4863 10.3798 14.63 10.5259 14.63 10.8181V12.5988C14.63 13.2712 14.4585 13.7767 14.1155 14.1152C13.7725 14.4584 13.2603 14.63 12.579 14.63H10.7992ZM5.39713 7.4235C5.26271 7.4235 5.15148 7.38176 5.06341 7.29829C4.97998 7.21482 4.93827 7.1012 4.93827 6.95744V6.01838C4.93827 5.87925 4.97998 5.76796 5.06341 5.68448C5.15148 5.59637 5.26271 5.55232 5.39713 5.55232C5.53154 5.55232 5.64278 5.59637 5.73084 5.68448C5.81891 5.76796 5.86294 5.87925 5.86294 6.01838V6.95744C5.86294 7.1012 5.81891 7.21482 5.73084 7.29829C5.64278 7.38176 5.53154 7.4235 5.39713 7.4235ZM7.41333 9.05122C7.26965 9.05122 7.15841 9.01876 7.07962 8.95384C7.00082 8.88427 6.96143 8.79153 6.96143 8.67559C6.96143 8.57357 6.99387 8.4901 7.05876 8.42517C7.12828 8.35561 7.21403 8.32083 7.316 8.32083H7.55238C7.60337 8.32083 7.6474 8.3046 7.68448 8.27214C7.72619 8.23968 7.74705 8.19099 7.74705 8.12606V5.90012C7.74705 5.78883 7.77949 5.70303 7.84438 5.64275C7.90927 5.57782 7.99502 5.54536 8.10162 5.54536C8.21286 5.54536 8.30093 5.57782 8.36582 5.64275C8.43071 5.70303 8.46315 5.78883 8.46315 5.90012V8.06346C8.46315 8.38808 8.37972 8.63386 8.21286 8.8008C8.046 8.96775 7.80035 9.05122 7.4759 9.05122C7.46664 9.05122 7.45505 9.05122 7.44114 9.05122C7.43187 9.05122 7.4226 9.05122 7.41333 9.05122ZM10.5211 7.4235C10.382 7.4235 10.2708 7.38176 10.1874 7.29829C10.1039 7.21482 10.0622 7.1012 10.0622 6.95744V6.01838C10.0622 5.87925 10.1039 5.76796 10.1874 5.68448C10.2708 5.59637 10.382 5.55232 10.5211 5.55232C10.6555 5.55232 10.7644 5.59637 10.8478 5.68448C10.9359 5.76796 10.9799 5.87925 10.9799 6.01838V6.95744C10.9799 7.1012 10.9359 7.21482 10.8478 7.29829C10.7644 7.38176 10.6555 7.4235 10.5211 7.4235ZM7.92781 11.298C7.52457 11.298 7.12597 11.2192 6.732 11.0615C6.33802 10.8992 6.00431 10.665 5.73084 10.359C5.69377 10.3219 5.66364 10.2824 5.64046 10.2407C5.62192 10.1943 5.61265 10.1456 5.61265 10.0946C5.61265 9.98797 5.64742 9.90218 5.71694 9.83726C5.78646 9.77233 5.87221 9.73987 5.97418 9.73987C6.03907 9.73987 6.09237 9.75378 6.13409 9.78161C6.18044 9.80943 6.2291 9.84653 6.28009 9.8929C6.48403 10.1016 6.73431 10.2685 7.03095 10.3937C7.32759 10.519 7.62654 10.5816 7.92781 10.5816C8.24762 10.5816 8.55353 10.519 8.84553 10.3937C9.14217 10.2639 9.39014 10.0969 9.58944 9.8929C9.68678 9.79088 9.78643 9.73987 9.8884 9.73987C9.98573 9.73987 10.0692 9.77233 10.1387 9.83726C10.2082 9.90218 10.243 9.98797 10.243 10.0946C10.243 10.1549 10.2337 10.2082 10.2152 10.2546C10.1966 10.2964 10.1711 10.3335 10.1387 10.3659C9.84205 10.6581 9.49906 10.8876 9.10973 11.0546C8.72503 11.2169 8.33105 11.298 7.92781 11.298Z" fill="black"/>
</svg>
