<svg width="16" height="16" viewBox="0 0 16 16" fill="none" xmlns="http://www.w3.org/2000/svg">
<path fill-rule="evenodd" clip-rule="evenodd" d="M13.783 10.6667C13.7351 10.6667 13.686 10.6609 13.6375 10.65C13.3128 10.5741 13.114 10.2626 13.194 9.95452C13.2013 9.92636 13.9023 7.15246 12.9674 5.19533C11.6283 2.39212 8.7593 2.47834 8.63388 2.48409C8.3091 2.49098 8.01705 2.25302 8.00069 1.93689C7.98494 1.62134 8.24003 1.35234 8.57268 1.33567C8.72537 1.32877 12.3821 1.18853 14.072 4.72056C15.182 7.0444 14.404 10.1011 14.3707 10.2298C14.3022 10.4914 14.055 10.6667 13.783 10.6667Z" fill="#A1A3A7"/>
<path fill-rule="evenodd" clip-rule="evenodd" d="M1.92261 10C1.80528 10 1.68677 9.96312 1.583 9.8875C1.31709 9.69137 1.25341 9.30772 1.44149 9.03043C1.92733 8.31293 2.08711 7.65876 2.24453 6.54961C2.83649 2.35344 5.78451 1.398 5.9095 1.35926C6.22082 1.26151 6.54981 1.44903 6.64238 1.77427C6.73436 2.0989 6.55748 2.44013 6.24735 2.53727C6.14476 2.57108 3.88894 3.3433 3.41077 6.72914C3.2616 7.78418 3.08295 8.73777 2.4049 9.73994C2.28993 9.90963 2.10774 10 1.92261 10Z" fill="#A1A3A7"/>
<path fill-rule="evenodd" clip-rule="evenodd" d="M4.64016 9.33334C4.59986 9.33334 4.55828 9.32945 4.51734 9.32102C4.17064 9.25291 3.94419 8.91237 4.012 8.5608C4.01264 8.55691 4.12266 7.98026 4.25188 7.18826C4.64272 4.76751 6.14978 3.33334 8.29204 3.33334C8.32402 3.33334 8.35601 3.33334 8.38799 3.33399C10.9109 3.38459 11.8902 5.28059 11.9305 5.36167C12.0904 5.6808 11.965 6.07129 11.6503 6.2341C11.3362 6.39497 10.9544 6.26978 10.7925 5.95388C10.7586 5.89032 10.0895 4.66632 8.36304 4.63129C6.35512 4.59042 5.7212 6.1141 5.51395 7.39907C5.38154 8.21507 5.26703 8.80859 5.26703 8.80859C5.20818 9.11864 4.94016 9.33334 4.64016 9.33334Z" fill="#A1A3A7"/>
<path fill-rule="evenodd" clip-rule="evenodd" d="M7.43417 14.6667C7.32475 14.6667 7.21424 14.6311 7.11747 14.5581C6.86951 14.3689 6.81013 13.9994 6.98552 13.7313C8.20391 11.8693 8.88018 9.17341 8.89997 7.94379C8.90327 7.75457 8.87688 7.49595 8.73448 7.33936C8.61846 7.21301 8.45737 7.18632 8.34246 7.18632C8.03016 7.18632 7.76625 7.46511 7.76625 7.7955C7.76625 8.12351 7.52049 8.38866 7.21644 8.38866C6.91294 8.38866 6.66663 8.12351 6.66663 7.7955C6.66663 6.80551 7.41877 6 8.34246 6C8.8021 6 9.21996 6.18032 9.51851 6.50775C9.74448 6.75628 10.0111 7.21064 9.9996 7.96455C9.97376 9.55066 9.15783 12.4684 7.88391 14.4158C7.7767 14.5795 7.60681 14.6667 7.43417 14.6667Z" fill="#A1A3A7"/>
<path fill-rule="evenodd" clip-rule="evenodd" d="M10.0889 14.6667C9.968 14.6667 9.84555 14.6423 9.73141 14.5905C9.36406 14.4228 9.22574 14.0348 9.42377 13.7231C10.3611 12.2469 11.2575 9.90592 11.1441 8.00662C11.1237 7.6539 11.445 7.35304 11.8622 7.33511C12.2674 7.30823 12.6332 7.58861 12.6551 7.94261C12.7904 10.235 11.7163 12.816 10.7556 14.3299C10.6188 14.545 10.358 14.6667 10.0889 14.6667Z" fill="#A1A3A7"/>
<path fill-rule="evenodd" clip-rule="evenodd" d="M4.64386 14C4.48481 14 4.3264 13.9391 4.20148 13.8174C3.94327 13.5639 3.93168 13.1404 4.17573 12.8715C5.14032 11.8113 5.73981 10.64 6.06176 9.18642C6.14161 8.82654 6.48675 8.60045 6.83318 8.68406C7.18025 8.76701 7.39661 9.12555 7.31676 9.48543C6.94136 11.1812 6.24077 12.5491 5.11198 13.7906C4.98513 13.9298 4.81514 14 4.64386 14Z" fill="#A1A3A7"/>
<path fill-rule="evenodd" clip-rule="evenodd" d="M2.54298 12.6667C2.39144 12.6667 2.23989 12.593 2.13289 12.4476C1.93626 12.1827 1.9607 11.7819 2.1872 11.552C2.65488 11.077 2.96828 10.3567 2.97154 10.3504C3.10625 10.0366 3.4327 9.91025 3.70048 10.0678C3.96826 10.2246 4.07635 10.6051 3.94273 10.9188C3.92644 10.9576 3.53318 11.8671 2.89876 12.5111C2.79664 12.6152 2.669 12.6667 2.54298 12.6667Z" fill="#A1A3A7"/>
</svg>
