<svg width="24" height="24" viewBox="0 0 24 24" fill="none" xmlns="http://www.w3.org/2000/svg">
<g clip-path="url(#clip0_2867_12400)">
<path d="M7.34866 0.174757L7.3487 0.174716L7.34602 0.172455C7.12063 -0.0179517 6.83867 -0.1125 6.5583 -0.1125C6.2543 -0.1125 5.94893 -0.00150866 5.71551 0.221998L3.23915 2.58995L3.23912 2.58992L3.23698 2.59208L3.19614 2.63331L3.19611 2.63328L3.19402 2.6355C2.77066 3.08667 2.786 3.7826 3.23914 4.21571C3.23915 4.21572 3.23916 4.21573 3.23917 4.21574L5.41464 6.29645L5.41462 6.29647L5.41648 6.29817L5.41896 6.30044C4.89567 7.27631 5.06182 8.50268 5.91486 9.31846L10.4013 13.609L6.05671 17.7639L6.05571 17.7649L5.9888 17.8305L5.98781 17.8315C4.5384 19.2885 4.56155 21.5955 6.05672 23.0253L6.05673 23.0253C6.81512 23.7503 7.80831 24.1125 8.80018 24.1125C9.79205 24.1125 10.7855 23.7503 11.5436 23.0253L19.9736 14.9636L19.9746 14.9626L20.0415 14.897L20.0425 14.896C21.4919 13.439 21.4687 11.1323 19.9736 9.7024L19.9725 9.70143L19.9061 9.63948L19.9061 9.63945L19.9039 9.6375L19.8401 9.58102C19.7926 9.5309 19.7436 9.48165 19.6931 9.43332L19.6153 9.51462L19.6931 9.43332L12.7365 2.78057L12.7365 2.78056L12.7351 2.77924L12.6683 2.71748L12.6683 2.71746L12.6668 2.71615C12.1482 2.25381 11.4866 2.02348 10.8263 2.02348C10.4003 2.02348 9.97387 2.1193 9.58587 2.31145C9.58278 2.30843 9.57967 2.30542 9.57653 2.30243C9.57653 2.30242 9.57652 2.30241 9.57651 2.30241L7.40104 0.221948L7.40108 0.22191L7.39853 0.219617L7.34866 0.174757ZM19.0552 10.5945L19.0552 10.5945C19.5419 11.0599 19.8086 11.677 19.8086 12.333C19.8086 12.989 19.5418 13.6063 19.0552 14.0717L10.6269 22.1322L10.6255 22.1335L10.5638 22.1906C10.5636 22.1908 10.5634 22.191 10.5631 22.1912C10.0838 22.6202 9.4617 22.856 8.80015 22.856C8.10952 22.856 7.46157 22.599 6.97475 22.1335C6.48808 21.6678 6.22132 21.0507 6.22132 20.3945C6.22132 19.7385 6.48808 19.1214 6.97475 18.656L15.4031 10.5957L15.4044 10.5945L15.4668 10.5367C15.9459 10.1075 16.5682 9.8717 17.2298 9.8717C17.9204 9.8717 18.5683 10.1287 19.0552 10.5945ZM16.994 8.62205C16.0819 8.67487 15.1845 9.0346 14.4862 9.7024L11.3265 12.7238L6.83373 8.42723L6.78777 8.38122C6.28998 7.8589 6.30474 7.04774 6.83282 6.54249L7.00504 6.37836C7.03792 6.35297 7.06972 6.32566 7.10027 6.29645L7.10027 6.29644L9.57642 3.92818L9.57645 3.92821L9.57859 3.92605L9.62049 3.88375L9.62061 3.88387L9.62477 3.87918L9.66065 3.83869L9.83273 3.67386L9.88539 3.62589C10.1433 3.4026 10.4742 3.27995 10.8261 3.27995C11.2021 3.27995 11.5539 3.41984 11.8183 3.67291L11.8184 3.67295L16.994 8.62205ZM6.55788 1.18567L8.56852 3.11239L6.25271 5.32706L4.24231 3.40083L6.55788 1.18567ZM17.1205 10.7842C16.1834 10.7842 15.4152 11.5118 15.4152 12.4199C15.4152 13.3281 16.1834 14.0557 17.1205 14.0557C18.0576 14.0557 18.8261 13.3281 18.8261 12.4199C18.8261 11.5118 18.0576 10.7842 17.1205 10.7842ZM17.1205 12.0406C17.3474 12.0406 17.5225 12.2152 17.5225 12.4199C17.5225 12.6245 17.3474 12.7991 17.1205 12.7991C16.8938 12.7991 16.7188 12.6247 16.7188 12.4199C16.7188 12.215 16.8938 12.0406 17.1205 12.0406Z" fill="black" stroke="black" stroke-width="0.225"/>
</g>
<defs>
<clipPath id="clip0_2867_12400">
<rect width="24" height="24" fill="white"/>
</clipPath>
</defs>
</svg>
