<svg width="15" height="18" viewBox="0 0 15 18" fill="none" xmlns="http://www.w3.org/2000/svg">
<path d="M8.51074 17.395C8.41797 17.395 8.3374 17.3633 8.26904 17.2998C8.20557 17.2412 8.1665 17.1606 8.15186 17.0581C8.03955 16.2573 7.91748 15.5835 7.78564 15.0366C7.65869 14.4946 7.48779 14.0479 7.27295 13.6963C7.05811 13.3447 6.7749 13.064 6.42334 12.854C6.07666 12.644 5.63232 12.4756 5.09033 12.3486C4.55322 12.2168 3.88916 12.0996 3.09814 11.9971C2.99072 11.9873 2.90527 11.9482 2.8418 11.8799C2.77832 11.8115 2.74658 11.7285 2.74658 11.6309C2.74658 11.5381 2.77832 11.4575 2.8418 11.3892C2.90527 11.3208 2.99072 11.2817 3.09814 11.272C3.88916 11.1841 4.55566 11.0791 5.09766 10.957C5.63965 10.835 6.08643 10.6665 6.43799 10.4517C6.78955 10.2368 7.07275 9.95117 7.2876 9.59473C7.50244 9.23828 7.67334 8.78662 7.80029 8.23975C7.93213 7.68799 8.04932 7.00928 8.15186 6.20361C8.1665 6.10596 8.20557 6.02783 8.26904 5.96924C8.3374 5.90576 8.41797 5.87402 8.51074 5.87402C8.6084 5.87402 8.68896 5.90576 8.75244 5.96924C8.81592 6.02783 8.85742 6.10596 8.87695 6.20361C8.97949 7.00928 9.09424 7.68799 9.22119 8.23975C9.35303 8.78662 9.52393 9.23828 9.73389 9.59473C9.94873 9.95117 10.2319 10.2368 10.5835 10.4517C10.9351 10.6665 11.3818 10.835 11.9238 10.957C12.4658 11.0791 13.1348 11.1841 13.9307 11.272C14.0332 11.2817 14.1162 11.3208 14.1797 11.3892C14.2432 11.4575 14.2749 11.5381 14.2749 11.6309C14.2749 11.7285 14.2432 11.8115 14.1797 11.8799C14.1162 11.9482 14.0332 11.9873 13.9307 11.9971C13.1348 12.085 12.4658 12.1899 11.9238 12.312C11.3818 12.4341 10.9351 12.6025 10.5835 12.8174C10.2319 13.0273 9.94873 13.3105 9.73389 13.667C9.52393 14.0234 9.35303 14.4775 9.22119 15.0293C9.09424 15.5811 8.97949 16.2573 8.87695 17.0581C8.85742 17.1606 8.81592 17.2412 8.75244 17.2998C8.68896 17.3633 8.6084 17.395 8.51074 17.395ZM3.54492 9.29443C3.39844 9.29443 3.31543 9.21387 3.2959 9.05273C3.2373 8.56445 3.17383 8.18115 3.10547 7.90283C3.04199 7.62451 2.93701 7.41699 2.79053 7.28027C2.64893 7.13867 2.43408 7.03125 2.146 6.95801C1.86279 6.88477 1.47217 6.80664 0.974121 6.72363C0.808105 6.69922 0.725098 6.61621 0.725098 6.47461C0.725098 6.33789 0.79834 6.25732 0.944824 6.23291C1.44775 6.13525 1.84326 6.0498 2.13135 5.97656C2.41943 5.89844 2.63672 5.79102 2.7832 5.6543C2.92969 5.51758 3.03711 5.31494 3.10547 5.04639C3.17383 4.77295 3.2373 4.39209 3.2959 3.90381C3.31543 3.74268 3.39844 3.66211 3.54492 3.66211C3.69141 3.66211 3.77441 3.74023 3.79395 3.89648C3.85742 4.38965 3.9209 4.77783 3.98438 5.06104C4.05273 5.34424 4.15771 5.55908 4.29932 5.70557C4.4458 5.84717 4.66309 5.95215 4.95117 6.02051C5.23926 6.08887 5.63721 6.15967 6.14502 6.23291C6.2085 6.23779 6.25977 6.26221 6.29883 6.30615C6.34277 6.3501 6.36475 6.40625 6.36475 6.47461C6.36475 6.61133 6.2915 6.69434 6.14502 6.72363C5.63721 6.82129 5.23926 6.90918 4.95117 6.9873C4.66797 7.06055 4.45312 7.16797 4.30664 7.30957C4.16504 7.44629 4.06006 7.65137 3.9917 7.9248C3.92334 8.19824 3.85742 8.5791 3.79395 9.06738C3.78418 9.13086 3.75732 9.18457 3.71338 9.22852C3.66943 9.27246 3.61328 9.29443 3.54492 9.29443ZM7.08984 4.25537C6.99707 4.25537 6.94336 4.20654 6.92871 4.10889C6.87012 3.81104 6.81885 3.57666 6.7749 3.40576C6.73584 3.23486 6.67236 3.10547 6.58447 3.01758C6.50146 2.9248 6.37207 2.85156 6.19629 2.79785C6.02051 2.74414 5.77393 2.69043 5.45654 2.63672C5.35889 2.61719 5.31006 2.56104 5.31006 2.46826C5.31006 2.38037 5.35889 2.32666 5.45654 2.30713C5.77393 2.24854 6.02051 2.19482 6.19629 2.146C6.37207 2.09229 6.50146 2.02148 6.58447 1.93359C6.67236 1.84082 6.73584 1.70898 6.7749 1.53809C6.81885 1.36719 6.87012 1.13281 6.92871 0.834961C6.94336 0.737305 6.99707 0.688477 7.08984 0.688477C7.17773 0.688477 7.23145 0.737305 7.25098 0.834961C7.30469 1.13281 7.35352 1.36719 7.39746 1.53809C7.44141 1.70898 7.50488 1.84082 7.58789 1.93359C7.67578 2.02148 7.80762 2.09229 7.9834 2.146C8.15918 2.19482 8.40576 2.24854 8.72314 2.30713C8.8208 2.32666 8.86963 2.38037 8.86963 2.46826C8.86963 2.56104 8.8208 2.61719 8.72314 2.63672C8.40576 2.69043 8.15918 2.74414 7.9834 2.79785C7.80762 2.85156 7.67578 2.9248 7.58789 3.01758C7.50488 3.10547 7.44141 3.23486 7.39746 3.40576C7.35352 3.57666 7.30469 3.81104 7.25098 4.10889C7.23145 4.20654 7.17773 4.25537 7.08984 4.25537Z" fill="#121312"/>
</svg>
