<svg width="24" height="24" viewBox="0 0 24 24" fill="none" xmlns="http://www.w3.org/2000/svg">
<path d="M20.6133 7.85333H3.32935V9.58666H20.6133V7.85333Z" fill="black"/>
<path d="M21.1613 8.94001L20.9453 8.77467C20.7132 8.59734 20.6666 8.26666 20.8413 8.03334L21.0053 7.81336C21.2719 7.46266 21.1546 7.03201 20.8479 6.67066L18.6133 3.54135C18.2773 3.07068 17.7346 2.79068 17.1559 2.79068H6.83727C6.25861 2.79068 5.71594 3.07068 5.37994 3.54135L3.15059 6.67066C2.84393 7.03201 2.72793 7.46135 2.99326 7.81336L3.15726 8.03334C3.33059 8.26801 3.28526 8.59734 3.05326 8.77467L2.83726 8.94001C2.4866 9.20668 2.41726 9.70666 2.68393 10.0574L10.5372 20.992C10.6546 21.1454 10.8359 21.236 11.0293 21.236H12.9666C13.1599 21.236 13.3413 21.1454 13.4586 20.992L21.3159 10.0574C21.5826 9.70666 21.5133 9.20536 21.1626 8.94001H21.1613ZM12.1746 19.6493C12.0852 19.7667 11.9093 19.7667 11.8199 19.6493L3.96394 8.87735C3.87458 8.76001 3.90394 8.58935 3.99061 8.47336L6.47461 4.99201C6.68393 4.69734 7.02259 4.52401 7.38394 4.52401H16.6093C16.9706 4.52401 17.3093 4.69869 17.5186 4.99201L20.0066 8.47336C20.0946 8.58935 20.1226 8.76136 20.0333 8.87735L12.1733 19.6493H12.1746Z" fill="black"/>
</svg>
