<svg width="24" height="24" viewBox="0 0 24 24" fill="none" xmlns="http://www.w3.org/2000/svg">
<path fill-rule="evenodd" clip-rule="evenodd" d="M20.0002 3.99979C21.054 3.99979 21.9183 4.81618 21.9947 5.85059L22.0002 5.99979V17.9998C22.0002 19.0536 21.1838 19.9179 20.1494 19.9943L19.9972 19.9988C19.9973 20.5172 19.6119 20.9393 19.114 20.997L18.9973 21.0037C18.4847 21.0037 18.0618 20.6183 18.004 20.1204L17.9972 19.9988H5.99818C5.99828 20.5172 5.612 20.9393 5.11485 20.997L4.99828 21.0037C4.44528 21.0037 3.99828 20.5567 3.99828 20.0037C2.94524 19.9989 2.08197 19.1827 2.00567 18.1489L2.00018 17.9998V5.99979C2.00018 4.94597 2.81658 4.08167 3.85099 4.00528L4.00018 3.99979H20.0002ZM20.0002 5.99979H4.00018V17.9998H20.0002V5.99979Z" fill="black"/>
<path fill-rule="evenodd" clip-rule="evenodd" d="M14.9973 8.00079C12.7883 8.00079 10.9973 9.79179 10.9973 12.0008C10.9973 14.2098 12.7883 16.0008 14.9973 16.0008C17.2063 16.0008 18.9973 14.2098 18.9973 12.0008C18.9973 9.79179 17.2063 8.00079 14.9973 8.00079ZM14.9973 10.0008C16.1003 10.0008 16.9973 10.8968 16.9973 12.0008C16.9973 13.1038 16.1003 14.0008 14.9973 14.0008C13.8943 14.0008 12.9973 13.1038 12.9973 12.0008C12.9973 10.8968 13.8943 10.0008 14.9973 10.0008Z" fill="black"/>
<path d="M6.99829 7.99979C7.51113 7.99979 7.9338 8.38583 7.99156 8.88317L7.99829 8.99979V14.9998C7.99829 15.5521 7.55058 15.9998 6.99829 15.9998C6.48546 15.9998 6.06278 15.6137 6.00502 15.1164L5.99829 14.9998V8.99979C5.99829 8.4475 6.44601 7.99979 6.99829 7.99979Z" fill="black"/>
</svg>
