<svg width="24" height="24" viewBox="0 0 24 24" fill="none" xmlns="http://www.w3.org/2000/svg">
<path fill-rule="evenodd" clip-rule="evenodd" d="M4.00043 9.99991C4.00043 6.69091 6.69143 3.99991 10.0004 3.99991C13.3084 3.99991 16.0004 6.69091 16.0004 9.99991C16.0004 13.3089 13.3084 15.9999 10.0004 15.9999C6.69143 15.9999 4.00043 13.3089 4.00043 9.99991ZM21.7054 20.2929L16.3134 14.9009C17.3664 13.5469 18.0004 11.8489 18.0004 9.99991C18.0004 5.58191 14.4184 1.99991 10.0004 1.99991C5.58143 1.99991 2.00043 5.58191 2.00043 9.99991C2.00043 14.4179 5.58143 17.9999 10.0004 17.9999C11.8484 17.9999 13.5454 17.3669 14.8984 16.3149L20.2914 21.7069C20.6804 22.0959 21.3164 22.0959 21.7054 21.7069C22.0944 21.3179 22.0944 20.6819 21.7054 20.2929Z" fill="black"/>
</svg>
