<svg width="24" height="24" viewBox="0 0 24 24" fill="none" xmlns="http://www.w3.org/2000/svg">
<path fill-rule="evenodd" clip-rule="evenodd" d="M9.99982 12.0035C9.99982 11.6319 9.94192 11.2737 9.83464 10.9377L14.9196 7.85706C15.5597 8.55906 16.4817 8.99951 17.5067 8.99951C19.44 8.99951 21.0067 7.4328 21.0067 5.49951C21.0067 3.56694 19.4397 1.99951 17.5067 1.99951C15.5737 1.99951 14.0067 3.56694 14.0067 5.49951C14.0067 5.68543 14.0212 5.86795 14.0491 6.04602L8.7039 9.28435C8.10222 8.79607 7.33525 8.50351 6.49982 8.50351C4.56653 8.50351 2.99982 10.0702 2.99982 12.0035C2.99982 13.9361 4.56682 15.5035 6.49982 15.5035C7.3354 15.5035 8.10259 15.2106 8.70438 14.722L14.0494 17.9602C14.0213 18.1388 14.0067 18.3218 14.0067 18.5083C14.0067 20.4416 15.5734 22.0083 17.5067 22.0083C19.44 22.0083 21.0067 20.4416 21.0067 18.5083C21.0067 16.575 19.44 15.0083 17.5067 15.0083C16.4822 15.0083 15.5607 15.4483 14.9207 16.1496L9.83482 13.0684C9.94198 12.7326 9.99982 12.3748 9.99982 12.0035ZM17.5067 3.99951C18.335 3.99951 19.0067 4.67139 19.0067 5.49951C19.0067 6.32823 18.3354 6.99951 17.5067 6.99951C16.678 6.99951 16.0067 6.32823 16.0067 5.49951C16.0067 4.67139 16.6784 3.99951 17.5067 3.99951ZM7.99982 12.0035C7.99982 11.1748 7.32853 10.5035 6.49982 10.5035C5.6711 10.5035 4.99982 11.1748 4.99982 12.0035C4.99982 12.8316 5.67151 13.5035 6.49982 13.5035C7.32812 13.5035 7.99982 12.8316 7.99982 12.0035ZM17.5067 17.0083C18.3354 17.0083 19.0067 17.6796 19.0067 18.5083C19.0067 19.337 18.3354 20.0083 17.5067 20.0083C16.678 20.0083 16.0067 19.337 16.0067 18.5083C16.0067 17.6796 16.678 17.0083 17.5067 17.0083Z" fill="black"/>
</svg>
