<svg width="16" height="16" viewBox="0 0 16 16" fill="none" xmlns="http://www.w3.org/2000/svg">
<path fill-rule="evenodd" clip-rule="evenodd" d="M8.00009 1.33334C7.75409 1.33334 7.50809 1.46334 7.38676 1.72401L5.87009 5.23401C5.77409 5.43801 5.58276 5.58134 5.35943 5.61601L1.90743 6.14601C1.36476 6.22934 1.14209 6.89134 1.52476 7.28601L4.06943 9.63668C4.21809 9.79001 4.28543 10.0047 4.25143 10.2153L3.38209 13.882C3.31143 14.3187 3.65876 14.6687 4.05009 14.6687C4.15876 14.6687 4.27076 14.6413 4.37809 14.582L7.67076 12.9053C7.77343 12.8487 7.88676 12.82 8.00009 12.82C8.11343 12.82 8.22676 12.8487 8.32876 12.9053L11.5628 14.582C11.6708 14.6413 11.7828 14.6687 11.8908 14.6687C12.2828 14.6687 12.6294 14.3187 12.5588 13.882L11.7488 10.2153C11.7141 10.0047 11.7814 9.79001 11.9308 9.63668L14.4748 7.28601C14.8574 6.89134 14.6354 6.22934 14.0928 6.14601L10.6401 5.61601C10.4168 5.58134 10.2254 5.43801 10.1301 5.23401L8.61343 1.72401C8.49143 1.46334 8.24609 1.33334 8.00009 1.33334M8.00016 3.666L8.90615 5.76266C8.91082 5.774 8.91682 5.786 8.92216 5.79733C9.20682 6.40666 9.77282 6.832 10.4375 6.93333L12.5415 7.25666L11.0255 8.65733C11.0082 8.674 10.9908 8.69066 10.9742 8.708C10.5335 9.16133 10.3308 9.80533 10.4322 10.43C10.4362 10.4547 10.4415 10.4793 10.4468 10.5033L10.9455 12.76L8.95549 11.7287C8.66216 11.57 8.33282 11.4867 8.00016 11.4867C7.66949 11.4867 7.34149 11.5693 7.05016 11.7253L5.01816 12.76L5.54882 10.5233C5.55616 10.492 5.56282 10.4607 5.56816 10.4293C5.66882 9.80466 5.46616 9.16133 5.02549 8.708C5.00949 8.69066 4.99149 8.674 4.97416 8.65733L3.45882 7.25666L5.56216 6.93333C6.22682 6.832 6.79282 6.40733 7.07749 5.798C7.08349 5.78666 7.08882 5.77466 7.09416 5.76266L8.00016 3.666" fill="#A1A3A7"/>
</svg>
