<svg width="24" height="25" viewBox="0 0 24 25" fill="none" xmlns="http://www.w3.org/2000/svg">
<path fill-rule="evenodd" clip-rule="evenodd" d="M21.4003 2.42072C21.0005 2.11671 20.3311 2.01965 19.4036 2.01965C17.2293 2.01965 14.9364 2.58736 13.5131 3.76003L13.2935 3.95313L12.8387 4.40977C9.85828 3.8457 7.07617 4.32958 4.6138 5.48036C3.56348 5.97123 2.80227 6.46869 2.37202 6.81979C1.91008 7.19674 1.87349 7.89473 2.29342 8.31882L5.62861 11.6878L4.91052 12.4136L4.81186 12.5222C3.85557 13.6717 4.84566 15.6741 6.66151 17.5074L6.83778 17.6822C8.66382 19.4612 10.6221 20.3693 11.7061 19.2769L12.4256 18.5482L15.7626 21.9181L15.8566 22.0019C16.2798 22.3347 16.9008 22.2719 17.2475 21.8387C17.5953 21.4042 18.088 20.6356 18.5741 19.575C19.6813 17.1597 20.1652 14.44 19.6799 11.5282L19.6336 11.2708L20.0854 10.8148L20.2425 10.6306C21.9358 8.52453 22.5027 3.81193 21.5923 2.61291C21.5372 2.54037 21.4726 2.47572 21.4003 2.42072ZM13.8396 17.1206L17.8456 13.0766C17.9691 15.0991 17.5508 16.9999 16.7591 18.7269L16.6125 19.0354C16.5136 19.2362 16.4127 19.4272 16.307 19.612L13.8396 17.1206ZM19.4036 4.0389C17.6695 4.0389 15.817 4.49558 14.8342 5.27601L14.6786 5.40905L6.46702 13.6976L6.49213 13.791L6.54334 13.9394L6.57714 14.0225L6.63819 14.1572C6.91202 14.7279 7.42477 15.4224 8.07573 16.0796C8.72699 16.7371 9.41474 17.255 9.97972 17.5316C10.0723 17.577 10.1579 17.6139 10.2345 17.6425L10.3424 17.6792L10.435 17.7038L18.6309 9.42919C19.2773 8.71604 19.727 7.45064 19.9137 5.97956C19.978 5.4735 20.0061 4.97223 19.9998 4.53663L19.9918 4.28364L19.976 4.06172L19.748 4.0465L19.5812 4.04084L19.4036 4.0389ZM4.85749 7.61193C5.04647 7.51036 5.24543 7.41026 5.45394 7.31281C7.16445 6.51341 9.0472 6.09103 11.0508 6.2159L7.04361 10.2592L4.57602 7.76806L4.85749 7.61193Z" fill="black"/>
</svg>
