<svg width="24" height="24" viewBox="0 0 24 24" fill="none" xmlns="http://www.w3.org/2000/svg">
<path fill-rule="evenodd" clip-rule="evenodd" d="M10.9995 8.4161V20.9991C10.9995 21.5521 11.4475 21.9991 11.9995 21.9991C12.5525 21.9991 12.9995 21.5521 12.9995 20.9991V8.4161L17.1215 12.5371C17.5125 12.9281 18.1455 12.9281 18.5355 12.5371C18.9265 12.1461 18.9265 11.5141 18.5355 11.1231L12.8785 5.4661C12.8495 5.4371 12.8185 5.4101 12.7875 5.3861C12.6035 5.1511 12.3195 5.0021 11.9995 5.0021C11.6805 5.0021 11.3955 5.1511 11.2125 5.3861C11.1815 5.4101 11.1495 5.4371 11.1215 5.4661L5.4645 11.1231C5.0735 11.5141 5.0735 12.1461 5.4645 12.5371C5.8545 12.9281 6.4875 12.9281 6.8785 12.5371L10.9995 8.4161Z" fill="black"/>
<path fill-rule="evenodd" clip-rule="evenodd" d="M20.9995 4H2.9995C2.4495 4 1.9995 3.55 1.9995 3C1.9995 2.45 2.4495 2 2.9995 2H20.9995C21.5505 2 21.9995 2.45 21.9995 3C21.9995 3.55 21.5505 4 20.9995 4Z" fill="black"/>
</svg>
