<svg width="16" height="16" viewBox="0 0 16 16" fill="none" xmlns="http://www.w3.org/2000/svg">
<path d="M5.90039 1C6.67341 1.00021 7.2998 1.62732 7.2998 2.40039V5.90039C7.29959 6.67328 6.67328 7.29959 5.90039 7.2998H2.40039C1.62732 7.2998 1.00021 6.67341 1 5.90039V2.40039C1 1.62719 1.62719 1 2.40039 1H5.90039ZM2.40039 5.90039H5.90039V2.40039H2.40039V5.90039Z" fill="currentColor"/>
<path d="M4.6001 9.00513C4.26951 9.0023 4 9.26952 4 9.60012V10.7661C4 11.4476 4.53279 12 5.19002 12H6.37815C6.71695 12 6.99236 11.7268 6.99506 11.388C6.99778 11.0454 6.72079 10.7661 6.37815 10.7661H5.79751H5.49376H5.48753L5.19002 10.4814V10.1966V9.60012C5.19002 9.27349 4.92672 9.00792 4.6001 9.00513Z" fill="currentColor"/>
<path d="M11.3999 6.99487C11.7305 6.9977 12 6.73048 12 6.39988V5.23385C12 4.55241 11.4672 4 10.81 4H9.62185C9.28305 4 9.00764 4.27323 9.00494 4.61202C9.00222 4.95465 9.27921 5.23385 9.62185 5.23385H10.2025H10.5062H10.5125L10.81 5.51861V5.80338V6.39988C10.81 6.72651 11.0733 6.99208 11.3999 6.99487Z" fill="currentColor"/>
<path d="M13.6004 8.70001C14.3734 8.70022 14.9998 9.32733 14.9998 10.1004V13.6004C14.9996 14.3733 14.3733 14.9996 13.6004 14.9998H10.1004C9.32733 14.9998 8.70022 14.3734 8.70001 13.6004V10.1004C8.70001 9.3272 9.3272 8.70001 10.1004 8.70001H13.6004ZM10.1004 13.6004H13.6004V10.1004H10.1004V13.6004Z" fill="currentColor"/>
</svg>
