<svg width="10" height="10" viewBox="0 0 10 10" fill="none" xmlns="http://www.w3.org/2000/svg">
<path fill-rule="evenodd" clip-rule="evenodd" d="M9.13099 0.64564C9.4393 0.953949 9.4393 1.45382 9.13099 1.76212L1.7622 9.13092C1.45389 9.43923 0.954019 9.43923 0.64571 9.13092C0.337402 8.82261 0.337402 8.32274 0.645711 8.01444L8.01451 0.64564C8.32282 0.337332 8.82268 0.337332 9.13099 0.64564Z" fill="#A1A3A7"/>
<path fill-rule="evenodd" clip-rule="evenodd" d="M9.35429 9.13092C9.04598 9.43923 8.54611 9.43923 8.2378 9.13092L0.869008 1.76212C0.5607 1.45382 0.5607 0.953948 0.869009 0.64564C1.17732 0.337331 1.67718 0.337331 1.98549 0.64564L9.35429 8.01444C9.6626 8.32275 9.6626 8.82261 9.35429 9.13092Z" fill="#A1A3A7"/>
</svg>
