<svg width="16" height="16" viewBox="0 0 16 16" fill="none" xmlns="http://www.w3.org/2000/svg">
<path fill-rule="evenodd" clip-rule="evenodd" d="M8.45644 0.849363C12.2123 1.06813 15.184 4.16134 15.184 7.98511V8.15991H15.1771C15.0828 11.9886 11.9067 15.1246 8.07266 15.1248C4.26935 15.1246 1.07581 12.1258 0.846093 8.4812L0.833398 8.12671C0.791374 3.90931 4.15076 0.805885 8.09023 0.837644L8.45644 0.849363ZM12.2484 3.8562C10.0046 1.56277 6.29855 1.50324 3.95547 3.69409L3.73281 3.91382C1.52188 6.20661 1.82396 9.50534 3.13906 11.2605C3.87522 10.2471 4.60992 9.23559 5.34414 8.22632L5.47109 8.06225C5.51287 8.01273 5.55517 7.96903 5.59707 7.93139C5.6823 7.85488 5.77828 7.79673 5.89199 7.77807C6.00593 7.75949 6.11545 7.78394 6.22012 7.82983C6.32278 7.8749 6.43135 7.94525 6.54922 8.031L8.00723 9.09643C8.77393 8.08941 9.53879 7.08576 10.3334 6.04272C9.90879 6.13109 9.51523 6.21381 9.12148 6.29077L9.12246 6.29175C8.94049 6.32778 8.76429 6.30326 8.62051 6.21557C8.47612 6.1273 8.37807 5.98393 8.33828 5.81225L8.3373 5.81128C8.26363 5.48294 8.45352 5.15575 8.81289 5.08178L10.2006 4.79565C10.6633 4.70178 11.1273 4.61041 11.5912 4.52221C11.7787 4.4874 11.9614 4.49358 12.1049 4.6062C12.2429 4.71471 12.3017 4.88879 12.3324 5.073L12.5346 6.29175C12.6021 6.69747 12.6702 7.10317 12.7377 7.50952L12.7533 7.65893C12.7598 7.80491 12.7367 7.94076 12.6723 8.05542C12.5817 8.21621 12.4262 8.30739 12.2406 8.33276C12.0557 8.35696 11.8821 8.30569 11.7484 8.18725C11.6177 8.07119 11.536 7.90184 11.5033 7.70776C11.4527 7.4024 11.4024 7.09597 11.349 6.77417C10.4995 7.88211 9.65022 8.99027 8.80312 10.1003C8.70375 10.23 8.61281 10.3399 8.5248 10.4197C8.43554 10.5005 8.33543 10.564 8.21426 10.5808C8.09333 10.5974 7.97869 10.5639 7.86953 10.5105C7.81571 10.4841 7.75845 10.4509 7.69863 10.4119L7.50723 10.2781C7.0516 9.94292 6.59368 9.60984 6.12637 9.26928C5.39622 10.2652 4.67377 11.253 3.95156 12.239C6.0355 14.2154 9.6022 14.5768 12.1059 12.2185L12.3207 12.0056C14.3939 9.83289 14.4567 6.35076 12.4555 4.07983L12.2484 3.8562ZM3.92422 12.4539C3.95123 12.4784 3.97977 12.5011 4.00723 12.5251C3.97769 12.4993 3.94738 12.4744 3.91836 12.448L3.92422 12.4539ZM2.83535 11.1287C2.89181 11.2151 2.94942 11.2993 3.01016 11.3796L3.1459 11.5505L3.01504 11.3855C2.95267 11.3033 2.89323 11.2172 2.83535 11.1287ZM8.69668 5.31323C8.74097 5.28629 8.79174 5.26537 8.84902 5.25366L8.75723 5.28198C8.73575 5.29093 8.7157 5.30166 8.69668 5.31323Z" fill="white"/>
</svg>
