<svg width="24" height="24" viewBox="0 0 24 24" fill="none" xmlns="http://www.w3.org/2000/svg">
<path fill-rule="evenodd" clip-rule="evenodd" d="M12.003 4C13.657 4 15.003 5.345 15.003 7C15.003 8.654 13.657 10 12.003 10C10.349 10 9.00302 8.654 9.00302 7C9.00302 5.345 10.349 4 12.003 4ZM16.314 12.069C15.734 11.746 15.112 11.504 14.459 11.328C15.97 10.467 17.003 8.86 17.003 7C17.003 4.243 14.76 2 12.003 2C9.24602 2 7.00302 4.243 7.00302 7C7.00302 8.853 8.02802 10.455 9.53002 11.319C5.04702 12.491 3.17002 16.848 2.04002 20.725C1.88602 21.255 2.19002 21.811 2.72002 21.965C2.81402 21.993 2.90802 22.005 3.00002 22.005C3.43402 22.005 3.83302 21.722 3.96002 21.286C5.65202 15.482 8.05702 13.005 12 13.005C13.272 13.005 14.363 13.27 15.337 13.815C15.818 14.083 16.428 13.911 16.698 13.43C16.968 12.948 16.795 12.338 16.314 12.069Z" fill="currentColor"/>
<path fill-rule="evenodd" clip-rule="evenodd" d="M13.3987 20.3853L13.4067 21.7273C13.4067 21.8783 13.5297 22.0003 13.6807 22.0003H15.0137C15.0867 22.0003 15.1567 21.9713 15.2087 21.9193L19.2367 17.8913C19.3947 17.7333 19.3947 17.4773 19.2367 17.3193L18.0547 16.1363C17.9107 15.9923 17.6767 15.9923 17.5327 16.1363L13.4797 20.1903C13.4277 20.2413 13.3987 20.3123 13.3987 20.3853Z" fill="currentColor"/>
<path fill-rule="evenodd" clip-rule="evenodd" d="M20.4414 16.6861L21.9204 15.2071C22.0314 15.0971 22.0314 14.9161 21.9204 14.8051L20.5924 13.4791C20.4824 13.3681 20.3014 13.3681 20.1904 13.4791L18.7124 14.9571C18.6004 15.0681 18.6004 15.2491 18.7124 15.3601L20.0384 16.6861C20.1494 16.7971 20.3304 16.7971 20.4414 16.6861Z" fill="currentColor"/>
</svg>
