<svg width="850" height="850" viewBox="0 0 850 850" fill="none" xmlns="http://www.w3.org/2000/svg">
<path d="M98.1725 314.383C104.283 308.273 114.193 308.281 120.293 314.402L414.383 609.467C420.491 615.595 430.414 615.595 436.522 609.467L730.606 314.41C736.706 308.29 746.616 308.281 752.726 314.392L819.58 381.245C843.994 405.659 843.994 445.242 819.58 469.655L469.65 819.585C445.236 843.999 405.654 843.999 381.24 819.585L31.3103 469.655C6.89655 445.242 6.89656 405.659 31.3103 381.245L98.1725 314.383Z" fill="black"/>
<path d="M290.738 365.58C284.63 371.708 274.706 371.708 268.598 365.58L168.995 265.646C162.909 259.54 162.917 249.658 169.014 243.562L381.265 31.3103C405.679 6.89655 445.261 6.89656 469.675 31.3103L681.935 243.57C688.032 249.667 688.04 259.548 681.954 265.655L582.358 365.58C576.25 371.708 566.326 371.708 560.219 365.58L436.547 241.499C430.439 235.371 420.516 235.371 414.408 241.499L290.738 365.58Z" fill="#FF6521"/>
</svg>
