<svg width="80" height="80" viewBox="0 0 80 80" fill="none" xmlns="http://www.w3.org/2000/svg">
<path fill-rule="evenodd" clip-rule="evenodd" d="M46.7256 57.1451C60.2124 57.1451 71.1456 46.2119 71.1456 32.7251C71.1456 19.2383 60.2124 8.30514 46.7256 8.30514C33.2388 8.30514 22.3056 19.2383 22.3056 32.7251C22.3056 46.2119 33.2388 57.1451 46.7256 57.1451ZM71.8106 32.7251C71.8106 46.5792 60.5797 57.8101 46.7256 57.8101C32.8716 57.8101 21.6406 46.5792 21.6406 32.7251C21.6406 18.8711 32.8716 7.64014 46.7256 7.64014C60.5797 7.64014 71.8106 18.8711 71.8106 32.7251Z" fill="#A1A3A7"/>
<path d="M32.9098 71.9401C46.4545 71.9401 57.4348 60.9599 57.4348 47.4151C57.4348 33.8704 46.4545 22.8901 32.9098 22.8901C19.365 22.8901 8.38477 33.8704 8.38477 47.4151C8.38477 60.9599 19.365 71.9401 32.9098 71.9401Z" fill="#F4F4F4"/>
<path d="M33.0256 72.0752H32.9056C32.7256 72.0752 32.5806 71.9252 32.5806 71.7502C32.5806 71.5702 32.7106 71.4452 32.9056 71.4252H33.0106C33.0106 71.4252 33.0106 71.4252 33.0156 71.4252C33.7956 71.4252 34.5856 71.3852 35.3656 71.3102C35.5406 71.2902 35.7006 71.4252 35.7206 71.6002C35.7406 71.7802 35.6056 71.9402 35.4306 71.9552C34.6356 72.0302 33.8206 72.0702 33.0206 72.0702L33.0256 72.0752ZM30.9156 71.9852C30.9156 71.9852 30.8956 71.9852 30.8856 71.9852C30.0456 71.9152 29.2006 71.8002 28.3756 71.6402C28.2006 71.6052 28.0856 71.4352 28.1156 71.2602C28.1506 71.0852 28.3206 70.9652 28.4956 71.0002C29.3006 71.1502 30.1206 71.2652 30.9356 71.3352C31.1156 71.3502 31.2456 71.5102 31.2306 71.6852C31.2156 71.8552 31.0756 71.9802 30.9056 71.9802L30.9156 71.9852ZM37.3856 71.6852C37.2306 71.6852 37.0956 71.5752 37.0656 71.4202C37.0356 71.2452 37.1506 71.0752 37.3256 71.0402C38.1306 70.8952 38.9406 70.7052 39.7256 70.4802C39.9006 70.4302 40.0806 70.5302 40.1256 70.7002C40.1756 70.8752 40.0756 71.0552 39.9056 71.1052C39.1006 71.3402 38.2706 71.5302 37.4406 71.6802C37.4206 71.6802 37.4006 71.6852 37.3806 71.6852H37.3856ZM26.4906 71.1952C26.4606 71.1952 26.4306 71.1952 26.4056 71.1852C25.5956 70.9602 24.7856 70.6902 24.0056 70.3852C23.8406 70.3202 23.7556 70.1302 23.8206 69.9652C23.8856 69.8002 24.0756 69.7152 24.2406 69.7802C25.0056 70.0802 25.7906 70.3402 26.5806 70.5602C26.7556 70.6102 26.8556 70.7852 26.8056 70.9602C26.7656 71.1052 26.6356 71.2002 26.4906 71.2002V71.1952ZM41.7106 70.4852C41.5806 70.4852 41.4556 70.4052 41.4056 70.2752C41.3406 70.1052 41.4256 69.9202 41.5956 69.8552C42.3606 69.5652 43.1206 69.2302 43.8506 68.8602C44.0156 68.7802 44.2056 68.8452 44.2856 69.0052C44.3656 69.1652 44.3006 69.3602 44.1406 69.4402C43.3906 69.8202 42.6106 70.1652 41.8256 70.4602C41.7856 70.4752 41.7506 70.4802 41.7106 70.4802V70.4852ZM22.2856 69.6002C22.2356 69.6002 22.1906 69.5902 22.1406 69.5652C21.3856 69.1952 20.6406 68.7802 19.9256 68.3352C19.7756 68.2402 19.7256 68.0402 19.8206 67.8852C19.9156 67.7352 20.1156 67.6852 20.2706 67.7802C20.9656 68.2152 21.6906 68.6152 22.4256 68.9752C22.5856 69.0552 22.6556 69.2502 22.5756 69.4102C22.5206 69.5252 22.4056 69.5902 22.2856 69.5902V69.6002ZM45.7406 68.5052C45.6306 68.5052 45.5256 68.4502 45.4606 68.3502C45.3656 68.1952 45.4156 67.9952 45.5706 67.9052C46.2656 67.4802 46.9506 67.0102 47.6056 66.5152C47.7456 66.4052 47.9506 66.4352 48.0606 66.5752C48.1706 66.7202 48.1406 66.9202 48.0006 67.0302C47.3306 67.5402 46.6256 68.0202 45.9106 68.4602C45.8556 68.4902 45.8006 68.5102 45.7406 68.5102V68.5052ZM18.4506 67.2652C18.3856 67.2652 18.3156 67.2452 18.2556 67.2002C17.5806 66.7002 16.9206 66.1552 16.3056 65.5902C16.1756 65.4702 16.1656 65.2652 16.2856 65.1302C16.4056 64.9952 16.6106 64.9902 16.7456 65.1102C17.3506 65.6652 17.9906 66.1902 18.6456 66.6802C18.7906 66.7852 18.8206 66.9902 18.7106 67.1352C18.6456 67.2202 18.5506 67.2652 18.4506 67.2652ZM49.3456 65.8202C49.2556 65.8202 49.1656 65.7852 49.1056 65.7102C48.9856 65.5752 48.9956 65.3702 49.1306 65.2502C49.7406 64.7052 50.3256 64.1202 50.8756 63.5102C50.9956 63.3752 51.2006 63.3702 51.3356 63.4902C51.4706 63.6102 51.4806 63.8152 51.3556 63.9502C50.7906 64.5752 50.1856 65.1752 49.5606 65.7352C49.5006 65.7902 49.4206 65.8202 49.3456 65.8202ZM15.1056 64.2652C15.0206 64.2652 14.9306 64.2302 14.8656 64.1602C14.2956 63.5452 13.7456 62.8902 13.2406 62.2202C13.1306 62.0752 13.1606 61.8752 13.3056 61.7652C13.4506 61.6552 13.6556 61.6852 13.7606 61.8302C14.2556 62.4852 14.7856 63.1202 15.3456 63.7202C15.4656 63.8502 15.4606 64.0552 15.3306 64.1802C15.2706 64.2402 15.1906 64.2652 15.1106 64.2652H15.1056ZM52.3956 62.5252C52.3256 62.5252 52.2556 62.5052 52.1956 62.4602C52.0556 62.3502 52.0256 62.1452 52.1356 62.0052C52.6356 61.3552 53.1056 60.6702 53.5356 59.9752C53.6306 59.8252 53.8306 59.7752 53.9806 59.8702C54.1356 59.9652 54.1806 60.1652 54.0856 60.3152C53.6456 61.0302 53.1606 61.7302 52.6456 62.4002C52.5806 62.4852 52.4856 62.5252 52.3856 62.5252H52.3956ZM12.3656 60.7052C12.2556 60.7052 12.1506 60.6502 12.0906 60.5552C11.6406 59.8452 11.2206 59.1052 10.8456 58.3502C10.7656 58.1902 10.8306 57.9952 10.9906 57.9152C11.1556 57.8352 11.3456 57.9002 11.4256 58.0602C11.7906 58.7952 12.1956 59.5152 12.6356 60.2052C12.7306 60.3552 12.6856 60.5602 12.5356 60.6552C12.4806 60.6902 12.4206 60.7052 12.3606 60.7052H12.3656ZM54.7956 58.7252C54.7456 58.7252 54.6956 58.7152 54.6506 58.6902C54.4906 58.6102 54.4256 58.4152 54.5106 58.2552C54.8806 57.5252 55.2206 56.7652 55.5156 56.0052C55.5806 55.8352 55.7706 55.7552 55.9356 55.8202C56.1006 55.8852 56.1856 56.0752 56.1206 56.2402C55.8156 57.0252 55.4706 57.8002 55.0906 58.5502C55.0306 58.6652 54.9206 58.7252 54.8006 58.7252H54.7956ZM10.3206 56.7052C10.1906 56.7052 10.0706 56.6302 10.0206 56.5002C9.70563 55.7152 9.43563 54.9102 9.20563 54.1052C9.15563 53.9302 9.25562 53.7552 9.43062 53.7052C9.60562 53.6552 9.78563 53.7552 9.83063 53.9302C10.0556 54.7152 10.3206 55.5002 10.6256 56.2652C10.6906 56.4302 10.6106 56.6202 10.4456 56.6852C10.4056 56.7002 10.3656 56.7102 10.3256 56.7102L10.3206 56.7052ZM56.4606 54.5502C56.4306 54.5502 56.4006 54.5502 56.3706 54.5352C56.2006 54.4852 56.1006 54.3052 56.1506 54.1302C56.3806 53.3452 56.5756 52.5352 56.7256 51.7352C56.7556 51.5602 56.9256 51.4402 57.1056 51.4752C57.2806 51.5102 57.4006 51.6752 57.3656 51.8552C57.2106 52.6802 57.0156 53.5102 56.7806 54.3152C56.7406 54.4552 56.6106 54.5502 56.4706 54.5502H56.4606ZM9.05063 52.4002C8.90063 52.4002 8.76063 52.2952 8.73063 52.1402C8.57063 51.3152 8.44563 50.4752 8.37063 49.6352C8.35563 49.4552 8.48563 49.3002 8.66563 49.2802C8.83563 49.2702 9.00063 49.3952 9.02063 49.5752C9.09563 50.3902 9.21563 51.2152 9.37063 52.0152C9.40562 52.1902 9.29062 52.3602 9.11562 52.3952C9.09562 52.3952 9.07563 52.4002 9.05063 52.4002ZM57.3256 50.1452C57.3256 50.1452 57.3056 50.1452 57.2906 50.1452C57.1106 50.1252 56.9806 49.9702 57.0006 49.7902C57.0856 48.9802 57.1256 48.1502 57.1256 47.3302C57.1256 47.1452 57.1256 46.9602 57.1206 46.7752C57.1206 46.5952 57.2606 46.4452 57.4356 46.4402C57.6356 46.4402 57.7656 46.5802 57.7706 46.7552C57.7706 46.9452 57.7756 47.1352 57.7756 47.3302C57.7756 48.1752 57.7306 49.0252 57.6456 49.8602C57.6306 50.0252 57.4856 50.1502 57.3206 50.1502L57.3256 50.1452ZM8.59063 47.9352C8.41063 47.9352 8.26562 47.7902 8.26562 47.6152V47.3302C8.26562 46.5802 8.29562 45.8252 8.36562 45.0902C8.38062 44.9102 8.54562 44.7802 8.72062 44.7952C8.90062 44.8102 9.03062 44.9702 9.01562 45.1502C8.95063 45.8702 8.92063 46.6052 8.92063 47.3352V47.6152C8.92063 47.7952 8.78063 47.9402 8.60063 47.9452L8.59063 47.9352ZM57.3156 45.0952C57.1506 45.0952 57.0106 44.9702 56.9906 44.8052C56.9056 43.9902 56.7806 43.1702 56.6106 42.3702C56.5756 42.1952 56.6856 42.0202 56.8606 41.9852C57.0406 41.9502 57.2106 42.0602 57.2456 42.2352C57.4156 43.0602 57.5506 43.9002 57.6356 44.7352C57.6556 44.9152 57.5256 45.0752 57.3456 45.0902C57.3356 45.0902 57.3206 45.0902 57.3106 45.0902L57.3156 45.0952ZM8.94563 43.4602C8.94563 43.4602 8.91062 43.4602 8.89062 43.4602C8.71562 43.4302 8.59563 43.2602 8.62563 43.0852C8.77063 42.2552 8.95563 41.4252 9.18563 40.6152C9.23563 40.4452 9.41063 40.3402 9.58563 40.3902C9.76063 40.4402 9.86063 40.6202 9.81063 40.7902C9.59063 41.5752 9.40562 42.3852 9.26562 43.1952C9.24063 43.3552 9.10063 43.4652 8.94563 43.4652V43.4602ZM56.4406 40.6902C56.3006 40.6902 56.1706 40.6002 56.1306 40.4552C55.9006 39.6752 55.6206 38.8902 55.3106 38.1302C55.2406 37.9652 55.3206 37.7752 55.4856 37.7052C55.6506 37.6352 55.8406 37.7152 55.9106 37.8802C56.2306 38.6602 56.5156 39.4652 56.7556 40.2652C56.8056 40.4352 56.7106 40.6202 56.5356 40.6702C56.5056 40.6802 56.4756 40.6852 56.4456 40.6852L56.4406 40.6902ZM10.1156 39.1252C10.0756 39.1252 10.0406 39.1202 10.0006 39.1052C9.83063 39.0402 9.74563 38.8552 9.81063 38.6852C10.1056 37.9002 10.4406 37.1152 10.8156 36.3602C10.8956 36.2002 11.0906 36.1352 11.2506 36.2152C11.4106 36.2952 11.4756 36.4902 11.3956 36.6502C11.0306 37.3852 10.7006 38.1502 10.4156 38.9152C10.3656 39.0452 10.2406 39.1252 10.1106 39.1252H10.1156ZM54.7656 36.5202C54.6456 36.5202 54.5356 36.4552 54.4756 36.3452C54.1006 35.6202 53.6856 34.9002 53.2406 34.2102C53.1406 34.0602 53.1856 33.8602 53.3356 33.7602C53.4856 33.6602 53.6906 33.7052 53.7856 33.8552C54.2456 34.5602 54.6706 35.3002 55.0556 36.0452C55.1356 36.2052 55.0756 36.4002 54.9156 36.4852C54.8706 36.5102 54.8156 36.5202 54.7656 36.5202ZM12.0656 35.0752C12.0106 35.0752 11.9506 35.0602 11.9006 35.0302C11.7456 34.9352 11.6956 34.7402 11.7906 34.5852C12.2256 33.8652 12.7006 33.1602 13.2056 32.4852C13.3106 32.3402 13.5156 32.3102 13.6606 32.4202C13.8056 32.5302 13.8356 32.7302 13.7256 32.8752C13.2356 33.5302 12.7706 34.2202 12.3506 34.9202C12.2906 35.0202 12.1806 35.0752 12.0706 35.0752H12.0656ZM52.3556 32.7302C52.2606 32.7302 52.1606 32.6852 52.1006 32.6052C51.6006 31.9602 51.0606 31.3302 50.4956 30.7352C50.3706 30.6052 50.3756 30.4002 50.5056 30.2752C50.6356 30.1502 50.8406 30.1552 50.9656 30.2852C51.5456 30.8952 52.1006 31.5452 52.6106 32.2052C52.7206 32.3452 52.6956 32.5502 52.5506 32.6602C52.4906 32.7052 52.4206 32.7302 52.3506 32.7302H52.3556ZM14.7256 31.4552C14.6506 31.4552 14.5706 31.4302 14.5106 31.3752C14.3756 31.2552 14.3656 31.0502 14.4856 30.9152C15.0456 30.2852 15.6406 29.6802 16.2606 29.1102C16.3956 28.9902 16.6006 28.9952 16.7206 29.1302C16.8406 29.2602 16.8356 29.4702 16.7006 29.5902C16.0956 30.1452 15.5156 30.7352 14.9706 31.3502C14.9056 31.4252 14.8156 31.4602 14.7256 31.4602V31.4552ZM49.2956 29.4402C49.2206 29.4402 49.1406 29.4152 49.0806 29.3552C48.4706 28.8052 47.8206 28.2852 47.1606 27.8052C47.0156 27.7002 46.9806 27.4952 47.0906 27.3502C47.1956 27.2052 47.4006 27.1702 47.5456 27.2802C48.2256 27.7702 48.8856 28.3052 49.5156 28.8702C49.6506 28.9902 49.6606 29.1952 49.5406 29.3302C49.4756 29.4002 49.3856 29.4402 49.3006 29.4402H49.2956ZM18.0006 28.3802C17.9056 28.3802 17.8106 28.3352 17.7456 28.2552C17.6356 28.1152 17.6606 27.9102 17.8006 27.8002C18.4656 27.2852 19.1606 26.7952 19.8756 26.3452C20.0306 26.2502 20.2306 26.2952 20.3256 26.4502C20.4206 26.6002 20.3756 26.8052 20.2206 26.9002C19.5256 27.3352 18.8456 27.8102 18.2006 28.3152C18.1406 28.3602 18.0706 28.3852 18.0006 28.3852V28.3802ZM45.6856 26.7652C45.6306 26.7652 45.5706 26.7502 45.5156 26.7202C44.8156 26.2952 44.0856 25.9002 43.3456 25.5502C43.1856 25.4752 43.1156 25.2802 43.1906 25.1152C43.2706 24.9552 43.4656 24.8852 43.6256 24.9602C44.3856 25.3202 45.1356 25.7252 45.8556 26.1652C46.0106 26.2602 46.0556 26.4602 45.9656 26.6102C45.9056 26.7102 45.7956 26.7652 45.6856 26.7652ZM21.7806 25.9552C21.6606 25.9552 21.5506 25.8902 21.4906 25.7802C21.4056 25.6202 21.4706 25.4252 21.6306 25.3402C22.3756 24.9552 23.1506 24.6002 23.9356 24.2902C24.1006 24.2252 24.2906 24.3052 24.3556 24.4752C24.4206 24.6452 24.3406 24.8302 24.1706 24.8952C23.4106 25.1952 22.6556 25.5402 21.9256 25.9152C21.8756 25.9402 21.8256 25.9502 21.7756 25.9502L21.7806 25.9552ZM41.6456 24.7952C41.6056 24.7952 41.5706 24.7902 41.5306 24.7752C40.7656 24.4852 39.9756 24.2352 39.1806 24.0252C39.0056 23.9802 38.9056 23.8002 38.9506 23.6302C38.9956 23.4552 39.1756 23.3552 39.3456 23.4002C40.1606 23.6152 40.9706 23.8752 41.7556 24.1702C41.9256 24.2352 42.0106 24.4202 41.9456 24.5902C41.8956 24.7202 41.7706 24.8002 41.6406 24.8002L41.6456 24.7952ZM25.9406 24.2652C25.8006 24.2652 25.6706 24.1752 25.6306 24.0352C25.5806 23.8652 25.6756 23.6802 25.8456 23.6302C26.6506 23.3852 27.4756 23.1852 28.3056 23.0252C28.4806 22.9902 28.6506 23.1052 28.6856 23.2852C28.7206 23.4602 28.6056 23.6302 28.4256 23.6652C27.6206 23.8202 26.8156 24.0202 26.0306 24.2552C26.0006 24.2652 25.9656 24.2702 25.9356 24.2702L25.9406 24.2652ZM37.3156 23.6052C37.3156 23.6052 37.2756 23.6052 37.2606 23.6052C36.4556 23.4602 35.6306 23.3602 34.8156 23.3002C34.6356 23.2852 34.5006 23.1302 34.5156 22.9502C34.5306 22.7702 34.6856 22.6402 34.8656 22.6502C35.7056 22.7102 36.5506 22.8202 37.3756 22.9652C37.5506 22.9952 37.6706 23.1652 37.6406 23.3402C37.6106 23.4952 37.4756 23.6102 37.3206 23.6102L37.3156 23.6052ZM30.3456 23.3702C30.1806 23.3702 30.0406 23.2452 30.0206 23.0802C30.0006 22.9002 30.1306 22.7402 30.3106 22.7202C31.1456 22.6302 31.9956 22.5802 32.8356 22.5752C33.0156 22.5752 33.1606 22.7202 33.1606 22.9002C33.1606 23.0802 33.0156 23.2252 32.8356 23.2252C32.0156 23.2302 31.1856 23.2802 30.3756 23.3652C30.3656 23.3652 30.3506 23.3652 30.3406 23.3652L30.3456 23.3702Z" fill="#A1A3A7"/>
<path d="M28.9552 58.755C35.1932 58.755 40.2502 53.6981 40.2502 47.46C40.2502 41.222 35.1932 36.165 28.9552 36.165C22.7171 36.165 17.6602 41.222 17.6602 47.46C17.6602 53.6981 22.7171 58.755 28.9552 58.755Z" fill="#F4F4F4"/>
<path d="M28.955 59.0798C22.545 59.0798 17.335 53.8648 17.335 47.4598C17.335 41.0548 22.55 35.8398 28.955 35.8398C35.36 35.8398 40.575 41.0548 40.575 47.4598C40.575 53.8648 35.36 59.0798 28.955 59.0798ZM28.955 36.4898C22.905 36.4898 17.985 41.4098 17.985 47.4598C17.985 53.5098 22.905 58.4298 28.955 58.4298C35.005 58.4298 39.925 53.5098 39.925 47.4598C39.925 41.4098 35.005 36.4898 28.955 36.4898Z" fill="#A1A3A7"/>
<path d="M28.9548 54.8247C33.0224 54.8247 36.3198 51.5273 36.3198 47.4597C36.3198 43.3921 33.0224 40.0947 28.9548 40.0947C24.8873 40.0947 21.5898 43.3921 21.5898 47.4597C21.5898 51.5273 24.8873 54.8247 28.9548 54.8247Z" fill="#F4F4F4"/>
<path d="M28.9556 55.1549C24.7156 55.1549 21.2656 51.7049 21.2656 47.4649C21.2656 43.2249 24.7156 39.7749 28.9556 39.7749C33.1956 39.7749 36.6456 43.2249 36.6456 47.4649C36.6456 51.7049 33.1956 55.1549 28.9556 55.1549ZM28.9556 40.4199C25.0706 40.4199 21.9156 43.5799 21.9156 47.4599C21.9156 51.3399 25.0756 54.4999 28.9556 54.4999C32.8356 54.4999 35.9956 51.3399 35.9956 47.4599C35.9956 43.5799 32.8356 40.4199 28.9556 40.4199Z" fill="#A1A3A7"/>
<path d="M36.9552 58.755C43.1932 58.755 48.2502 53.6981 48.2502 47.46C48.2502 41.222 43.1932 36.165 36.9552 36.165C30.7171 36.165 25.6602 41.222 25.6602 47.46C25.6602 53.6981 30.7171 58.755 36.9552 58.755Z" fill="#F4F4F4"/>
<path d="M36.955 59.0798C30.545 59.0798 25.335 53.8648 25.335 47.4598C25.335 41.0548 30.55 35.8398 36.955 35.8398C43.36 35.8398 48.575 41.0548 48.575 47.4598C48.575 53.8648 43.36 59.0798 36.955 59.0798ZM36.955 36.4898C30.905 36.4898 25.985 41.4098 25.985 47.4598C25.985 53.5098 30.905 58.4298 36.955 58.4298C43.005 58.4298 47.925 53.5098 47.925 47.4598C47.925 41.4098 43.005 36.4898 36.955 36.4898Z" fill="#A1A3A7"/>
<path d="M36.9548 54.8247C41.0224 54.8247 44.3198 51.5273 44.3198 47.4597C44.3198 43.3921 41.0224 40.0947 36.9548 40.0947C32.8873 40.0947 29.5898 43.3921 29.5898 47.4597C29.5898 51.5273 32.8873 54.8247 36.9548 54.8247Z" fill="#F4F4F4"/>
<path d="M36.9556 55.1549C32.7156 55.1549 29.2656 51.7049 29.2656 47.4649C29.2656 43.2249 32.7156 39.7749 36.9556 39.7749C41.1956 39.7749 44.6456 43.2249 44.6456 47.4649C44.6456 51.7049 41.1956 55.1549 36.9556 55.1549ZM36.9556 40.4199C33.0706 40.4199 29.9156 43.5799 29.9156 47.4599C29.9156 51.3399 33.0756 54.4999 36.9556 54.4999C40.8356 54.4999 43.9956 51.3399 43.9956 47.4599C43.9956 43.5799 40.8356 40.4199 36.9556 40.4199Z" fill="#A1A3A7"/>
</svg>
