<svg width="80" height="80" viewBox="0 0 80 80" fill="none" xmlns="http://www.w3.org/2000/svg">
<path d="M31.1006 6.47168C44.771 6.47168 55.8535 17.5542 55.8535 31.2246C55.8535 44.8951 44.7711 55.9775 31.1006 55.9775C17.4302 55.9775 6.34766 44.8951 6.34766 31.2246C6.34768 17.5542 17.4302 6.4717 31.1006 6.47168Z" stroke="#A1A3A7" stroke-width="0.665"/>
<path d="M38.7754 69.5302C52.0304 69.5302 62.7754 58.7852 62.7754 45.5303C62.7754 32.2754 52.0304 21.5303 38.7754 21.5303C25.5206 21.5303 14.7754 32.2754 14.7754 45.5303C14.7754 58.7852 25.5206 69.5302 38.7754 69.5302Z" fill="white"/>
<path d="M38.7756 20.645C25.0306 20.645 13.8906 31.785 13.8906 45.53C13.8906 59.275 25.0306 70.415 38.7756 70.415C52.5206 70.415 63.6606 59.275 63.6606 45.53C63.6606 31.785 52.5206 20.645 38.7756 20.645ZM38.7756 69.53C25.5456 69.53 14.7756 58.765 14.7756 45.53C14.7756 32.295 25.5406 21.53 38.7756 21.53C52.0106 21.53 62.7756 32.295 62.7756 45.53C62.7756 58.765 52.0106 69.53 38.7756 69.53Z" fill="#A1A3A7"/>
<path d="M38.7748 69.9002C25.9298 69.9002 15.6098 59.3702 14.0298 45.5303C13.9348 46.4903 13.8848 47.4653 13.8848 48.4553C13.8848 63.5302 25.0998 74.0002 38.8398 74.0002C52.5798 74.0002 62.9348 63.6752 63.6548 48.4553C63.6998 47.4703 63.6048 46.4903 63.5098 45.5303C62.1798 59.2302 51.6098 69.9002 38.7648 69.9002H38.7748Z" fill="#A1A3A7"/>
<path d="M39.1648 27.0802C38.9848 27.0802 38.8398 26.9352 38.8398 26.7552V21.1102C38.8398 20.9302 38.9848 20.7852 39.1648 20.7852C39.3448 20.7852 39.4898 20.9302 39.4898 21.1102V26.7552C39.4898 26.9352 39.3448 27.0802 39.1648 27.0802Z" fill="#A1A3A7"/>
<path d="M39.1648 69.9649C38.9848 69.9649 38.8398 69.8199 38.8398 69.6399V63.9949C38.8398 63.8149 38.9848 63.6699 39.1648 63.6699C39.3448 63.6699 39.4898 63.8149 39.4898 63.9949V69.6399C39.4898 69.8199 39.3448 69.9649 39.1648 69.9649Z" fill="#A1A3A7"/>
<path d="M39.1648 45.6102C38.9848 45.6102 38.8398 45.4652 38.8398 45.2852V31.6102C38.8398 31.4302 38.9848 31.2852 39.1648 31.2852C39.3448 31.2852 39.4898 31.4302 39.4898 31.6102V45.2852C39.4898 45.4652 39.3448 45.6102 39.1648 45.6102Z" fill="#A1A3A7"/>
<path d="M62.8645 45.6353H57.2195C57.0395 45.6353 56.8945 45.4904 56.8945 45.3104C56.8945 45.1304 57.0395 44.9854 57.2195 44.9854H62.8645C63.0445 44.9854 63.1895 45.1304 63.1895 45.3104C63.1895 45.4904 63.0445 45.6353 62.8645 45.6353Z" fill="#A1A3A7"/>
<path d="M19.9798 45.6353H14.3348C14.1548 45.6353 14.0098 45.4904 14.0098 45.3104C14.0098 45.1304 14.1548 44.9854 14.3348 44.9854H19.9798C20.1598 44.9854 20.3048 45.1304 20.3048 45.3104C20.3048 45.4904 20.1598 45.6353 19.9798 45.6353Z" fill="#A1A3A7"/>
<path d="M51.77 31.9698C51.685 31.9698 51.605 31.9398 51.54 31.8748C51.415 31.7498 51.415 31.5398 51.54 31.4148L55.53 27.4248C55.655 27.2998 55.865 27.2998 55.99 27.4248C56.115 27.5498 56.115 27.7598 55.99 27.8848L52 31.8748C51.935 31.9398 51.855 31.9698 51.77 31.9698Z" fill="#A1A3A7"/>
<path d="M21.4455 63.8049C21.3805 63.8049 21.3105 63.7849 21.2555 63.7449C21.1105 63.6399 21.0805 63.4349 21.1855 63.2899L25.1755 57.7899C25.2805 57.6449 25.4855 57.6099 25.6305 57.7199C25.7755 57.8249 25.8105 58.0299 25.7005 58.1749L21.7105 63.6749C21.6455 63.7649 21.5455 63.8099 21.4455 63.8099V63.8049Z" fill="#A1A3A7"/>
<path d="M25.3802 33.4801C25.2952 33.4801 25.2152 33.4501 25.1502 33.3851L21.1602 29.3951C21.0352 29.2701 21.0352 29.0601 21.1602 28.9351C21.2852 28.8101 21.4952 28.8101 21.6202 28.9351L25.6102 32.9251C25.7352 33.0501 25.7352 33.2601 25.6102 33.3851C25.5452 33.4501 25.4652 33.4801 25.3802 33.4801Z" fill="#A1A3A7"/>
<path d="M55.7044 63.8048C55.6194 63.8048 55.5394 63.7748 55.4744 63.7098L51.4844 59.7198C51.3594 59.5948 51.3594 59.3848 51.4844 59.2598C51.6094 59.1348 51.8194 59.1348 51.9444 59.2598L55.9344 63.2498C56.0594 63.3748 56.0594 63.5848 55.9344 63.7098C55.8694 63.7748 55.7894 63.8048 55.7044 63.8048Z" fill="#A1A3A7"/>
<path d="M58.1505 40.1549C66.7355 40.1549 73.6955 33.1952 73.6955 24.6099C73.6955 16.0247 66.7355 9.06494 58.1505 9.06494C49.5652 9.06494 42.6055 16.0247 42.6055 24.6099C42.6055 33.1952 49.5652 40.1549 58.1505 40.1549Z" fill="white"/>
<path d="M58.1494 40.4854C57.9544 40.4854 57.7594 40.4853 57.5694 40.4753C57.3894 40.4703 57.2494 40.3203 57.2544 40.1403C57.2594 39.9603 57.4194 39.8204 57.5894 39.8254C58.3994 39.8554 59.2294 39.8204 60.0294 39.7204C60.2094 39.7004 60.3694 39.8254 60.3944 40.0054C60.4144 40.1854 60.2894 40.3454 60.1094 40.3654C59.4644 40.4454 58.7994 40.4854 58.1444 40.4854H58.1494ZM55.5944 40.2754C55.5944 40.2754 55.5594 40.2754 55.5394 40.2754C54.7044 40.1354 53.8694 39.9303 53.0644 39.6553C52.8944 39.6003 52.8044 39.4153 52.8594 39.2453C52.9194 39.0753 53.0994 38.9854 53.2694 39.0404C54.0394 39.3004 54.8394 39.5003 55.6394 39.6353C55.8144 39.6653 55.9344 39.8303 55.9094 40.0103C55.8844 40.1703 55.7444 40.2803 55.5894 40.2803L55.5944 40.2754ZM62.0394 39.9953C61.8944 39.9953 61.7644 39.9003 61.7244 39.7503C61.6794 39.5753 61.7844 39.4003 61.9594 39.3553C62.7494 39.1503 63.5244 38.8854 64.2694 38.5554C64.4344 38.4854 64.6244 38.5554 64.6994 38.7204C64.7694 38.8854 64.6994 39.0754 64.5344 39.1504C63.7594 39.4904 62.9494 39.7704 62.1244 39.9854C62.0994 39.9904 62.0694 39.9953 62.0444 39.9953H62.0394ZM51.3244 38.9103C51.2744 38.9103 51.2294 38.9003 51.1794 38.8753C50.4194 38.5003 49.6793 38.0654 48.9843 37.5754C48.8393 37.4704 48.8043 37.2703 48.9093 37.1203C49.0143 36.9753 49.2143 36.9404 49.3643 37.0404C50.0294 37.5104 50.7394 37.9304 51.4694 38.2904C51.6294 38.3704 51.6994 38.5653 51.6194 38.7253C51.5644 38.8403 51.4494 38.9053 51.3294 38.9053L51.3244 38.9103ZM66.1744 38.2603C66.0644 38.2603 65.9544 38.2053 65.8944 38.1053C65.7994 37.9503 65.8494 37.7503 66.0044 37.6603C66.6994 37.2403 67.3694 36.7604 67.9894 36.2354C68.1244 36.1204 68.3294 36.1354 68.4494 36.2754C68.5644 36.4104 68.5494 36.6154 68.4094 36.7354C67.7644 37.2854 67.0644 37.7854 66.3394 38.2204C66.2844 38.2504 66.2294 38.2653 66.1744 38.2653V38.2603ZM47.6243 36.3804C47.5443 36.3804 47.4643 36.3503 47.4043 36.2953C46.7793 35.7203 46.1993 35.0903 45.6743 34.4253C45.5643 34.2853 45.5893 34.0804 45.7293 33.9704C45.8693 33.8604 46.0743 33.8854 46.1843 34.0254C46.6843 34.6654 47.2443 35.2703 47.8443 35.8203C47.9743 35.9403 47.9843 36.1453 47.8643 36.2803C47.7993 36.3503 47.7143 36.3853 47.6243 36.3853V36.3804ZM69.6394 35.4203C69.5594 35.4203 69.4844 35.3903 69.4194 35.3353C69.2894 35.2153 69.2794 35.0103 69.3994 34.8753C69.9494 34.2753 70.4544 33.6253 70.8994 32.9453C70.9994 32.7953 71.1994 32.7553 71.3494 32.8503C71.4994 32.9503 71.5394 33.1503 71.4444 33.3003C70.9794 34.0103 70.4544 34.6853 69.8844 35.3153C69.8194 35.3853 69.7344 35.4203 69.6444 35.4203H69.6394ZM44.7993 32.9053C44.6893 32.9053 44.5793 32.8503 44.5193 32.7453C44.0843 32.0153 43.7043 31.2453 43.3943 30.4603C43.3293 30.2953 43.4093 30.1054 43.5793 30.0404C43.7443 29.9754 43.9343 30.0554 43.9993 30.2254C44.2993 30.9804 44.6643 31.7154 45.0793 32.4154C45.1693 32.5704 45.1193 32.7704 44.9693 32.8604C44.9193 32.8904 44.8593 32.9053 44.8043 32.9053H44.7993ZM72.1594 31.7103C72.1094 31.7103 72.0644 31.7003 72.0194 31.6753C71.8594 31.5953 71.7894 31.4003 71.8694 31.2403C72.2244 30.5103 72.5194 29.7403 72.7544 28.9603C72.8044 28.7903 72.9844 28.6903 73.1594 28.7403C73.3294 28.7903 73.4294 28.9704 73.3794 29.1454C73.1394 29.9604 72.8294 30.7603 72.4594 31.5253C72.4044 31.6403 72.2894 31.7103 72.1694 31.7103H72.1594ZM43.0843 28.7653C42.9393 28.7653 42.8043 28.6654 42.7693 28.5204C42.5593 27.7004 42.4193 26.8553 42.3443 26.0053C42.3293 25.8253 42.4593 25.6704 42.6393 25.6554C42.8143 25.6354 42.9743 25.7704 42.9893 25.9504C43.0593 26.7604 43.1943 27.5704 43.3943 28.3604C43.4393 28.5354 43.3343 28.7103 43.1593 28.7553C43.1343 28.7603 43.1043 28.7653 43.0793 28.7653H43.0843ZM73.5094 27.4304C73.5094 27.4304 73.4744 27.4304 73.4594 27.4304C73.2844 27.4004 73.1594 27.2353 73.1894 27.0603C73.3194 26.2603 73.3844 25.4403 73.3844 24.6253C73.3844 24.4453 73.5294 24.3003 73.7094 24.3003C73.8894 24.3003 74.0344 24.4453 74.0344 24.6253C74.0344 25.4753 73.9644 26.3304 73.8294 27.1654C73.8044 27.3254 73.6644 27.4404 73.5094 27.4404V27.4304ZM42.6243 24.3054C42.6243 24.3054 42.6143 24.3054 42.6093 24.3054C42.4293 24.3004 42.2893 24.1453 42.2993 23.9653C42.3343 23.1153 42.4343 22.2653 42.6043 21.4353C42.6393 21.2603 42.8093 21.1454 42.9893 21.1804C43.1643 21.2154 43.2793 21.3854 43.2443 21.5654C43.0843 22.3604 42.9843 23.1753 42.9493 23.9903C42.9443 24.1653 42.7993 24.3003 42.6243 24.3003V24.3054ZM73.6894 24.2203C73.5194 24.2203 73.3744 24.0853 73.3644 23.9103C73.3294 23.0953 73.2244 22.2804 73.0594 21.4854C73.0244 21.3104 73.1344 21.1354 73.3094 21.1004C73.4844 21.0654 73.6594 21.1754 73.6944 21.3504C73.8694 22.1804 73.9744 23.0303 74.0144 23.8803C74.0244 24.0603 73.8844 24.2103 73.7044 24.2203C73.7044 24.2203 73.6944 24.2203 73.6894 24.2203ZM43.4493 19.8954C43.4143 19.8954 43.3793 19.8903 43.3443 19.8753C43.1743 19.8153 43.0843 19.6303 43.1443 19.4603C43.4193 18.6603 43.7643 17.8703 44.1643 17.1253C44.2493 16.9653 44.4443 16.9053 44.6043 16.9903C44.7643 17.0753 44.8243 17.2704 44.7393 17.4304C44.3543 18.1504 44.0243 18.9003 43.7593 19.6703C43.7143 19.8053 43.5893 19.8903 43.4493 19.8903V19.8954ZM72.8444 19.8203C72.7094 19.8203 72.5844 19.7354 72.5394 19.6004C72.2694 18.8304 71.9394 18.0803 71.5494 17.3653C71.4644 17.2053 71.5244 17.0103 71.6794 16.9253C71.8394 16.8403 72.0344 16.9004 72.1194 17.0554C72.5244 17.8004 72.8694 18.5854 73.1494 19.3854C73.2094 19.5554 73.1194 19.7403 72.9494 19.8003C72.9144 19.8103 72.8794 19.8203 72.8444 19.8203ZM45.5043 15.9103C45.4393 15.9103 45.3743 15.8904 45.3143 15.8504C45.1693 15.7454 45.1343 15.5454 45.2393 15.3954C45.7343 14.7054 46.2843 14.0503 46.8843 13.4453C47.0093 13.3153 47.2193 13.3153 47.3443 13.4453C47.4743 13.5703 47.4743 13.7753 47.3443 13.9053C46.7693 14.4853 46.2393 15.1103 45.7693 15.7753C45.7043 15.8653 45.6043 15.9103 45.5043 15.9103ZM70.7694 15.8454C70.6694 15.8454 70.5694 15.8003 70.5044 15.7103C70.0294 15.0503 69.4944 14.4254 68.9194 13.8504C68.7944 13.7254 68.7944 13.5154 68.9194 13.3904C69.0444 13.2654 69.2544 13.2654 69.3794 13.3904C69.9794 13.9904 70.5394 14.6453 71.0344 15.3303C71.1394 15.4753 71.1044 15.6803 70.9594 15.7853C70.9044 15.8253 70.8344 15.8454 70.7694 15.8454ZM48.6093 12.6753C48.5143 12.6753 48.4193 12.6303 48.3543 12.5503C48.2443 12.4103 48.2693 12.2053 48.4093 12.0953C49.0793 11.5703 49.7943 11.1003 50.5394 10.6953C50.6994 10.6103 50.8944 10.6653 50.9794 10.8253C51.0644 10.9803 51.0094 11.1803 50.8494 11.2653C50.1394 11.6553 49.4493 12.1053 48.8093 12.6103C48.7493 12.6553 48.6793 12.6803 48.6093 12.6803V12.6753ZM67.6494 12.6253C67.5794 12.6253 67.5094 12.6053 67.4494 12.5553C66.8044 12.0603 66.1144 11.6103 65.3994 11.2203C65.2394 11.1353 65.1844 10.9353 65.2694 10.7803C65.3544 10.6253 65.5494 10.5653 65.7094 10.6503C66.4544 11.0553 67.1744 11.5253 67.8444 12.0403C67.9844 12.1503 68.0144 12.3553 67.9044 12.4953C67.8394 12.5803 67.7444 12.6203 67.6494 12.6203V12.6253ZM52.5044 10.4553C52.3744 10.4553 52.2544 10.3753 52.1994 10.2503C52.1344 10.0853 52.2144 9.89533 52.3844 9.83033C53.1744 9.52033 53.9944 9.27533 54.8244 9.09533C54.9994 9.06033 55.1744 9.17033 55.2094 9.34533C55.2444 9.52033 55.1344 9.69533 54.9594 9.73033C54.1644 9.90033 53.3744 10.1354 52.6194 10.4354C52.5794 10.4504 52.5394 10.4553 52.4994 10.4553H52.5044ZM63.7444 10.4253C63.7044 10.4253 63.6644 10.4203 63.6294 10.4053C62.8694 10.1153 62.0794 9.88033 61.2844 9.71533C61.1094 9.68033 60.9944 9.50533 61.0344 9.33033C61.0744 9.15533 61.2444 9.04033 61.4194 9.08033C62.2494 9.25533 63.0744 9.49533 63.8644 9.80033C64.0294 9.86533 64.1144 10.0503 64.0494 10.2203C63.9994 10.3503 63.8744 10.4303 63.7444 10.4303V10.4253ZM56.8744 9.44533C56.7094 9.44533 56.5644 9.31538 56.5494 9.14538C56.5344 8.96538 56.6694 8.81033 56.8444 8.79533C57.6844 8.72533 58.5494 8.72533 59.3944 8.79033C59.5744 8.80533 59.7094 8.96038 59.6944 9.14038C59.6794 9.32038 59.5244 9.46033 59.3444 9.44033C58.5344 9.38033 57.7044 9.38033 56.8994 9.44533C56.8894 9.44533 56.8794 9.44533 56.8744 9.44533Z" fill="#A1A3A7"/>
<path d="M45.805 52.1602C45.72 52.1602 45.64 52.1302 45.575 52.0652L38.96 45.4502C38.835 45.3252 38.835 45.1152 38.96 44.9902C39.085 44.8652 39.295 44.8652 39.42 44.9902L46.035 51.6052C46.16 51.7302 46.16 51.9402 46.035 52.0652C45.97 52.1302 45.89 52.1602 45.805 52.1602Z" fill="#A1A3A7"/>
<path d="M55.0301 30.0849C54.8501 30.0849 54.7051 29.9399 54.7051 29.7599V18.9549C54.7051 18.7749 54.8501 18.6299 55.0301 18.6299C55.2101 18.6299 55.3551 18.7749 55.3551 18.9549V29.7599C55.3551 29.9399 55.2101 30.0849 55.0301 30.0849Z" fill="#A1A3A7"/>
<path d="M52.1602 27.4351L52.6702 26.9551L55.0302 29.4901L57.3902 26.9551L57.9002 27.4351L55.0302 30.5251L52.1602 27.4351Z" fill="#A1A3A7"/>
<path d="M61.5145 30.3549C61.3345 30.3549 61.1895 30.21 61.1895 30.03V19.225C61.1895 19.045 61.3345 18.8999 61.5145 18.8999C61.6945 18.8999 61.8395 19.045 61.8395 19.225V30.03C61.8395 30.21 61.6945 30.3549 61.5145 30.3549Z" fill="#A1A3A7"/>
<path d="M64.3856 21.5548L63.8706 22.0348L61.5156 19.4948L59.1556 22.0348L58.6406 21.5548L61.5156 18.4648L64.3856 21.5548Z" fill="#A1A3A7"/>
</svg>
