<svg width="32" height="32" viewBox="0 0 32 32" fill="none" xmlns="http://www.w3.org/2000/svg">
<g clip-path="url(#clip0_4138_11022)">
<rect x="0.5" y="0.5" width="31" height="31" rx="5.5" stroke="#DCDEE0"/>
<g clip-path="url(#clip1_4138_11022)">
<path d="M13.9004 9C14.6734 9.00021 15.2998 9.62732 15.2998 10.4004V13.9004C15.2996 14.6733 14.6733 15.2996 13.9004 15.2998H10.4004C9.62732 15.2998 9.00021 14.6734 9 13.9004V10.4004C9 9.62719 9.62719 9 10.4004 9H13.9004ZM10.4004 13.9004H13.9004V10.4004H10.4004V13.9004Z" fill="white"/>
<path d="M12.6001 17.0051C12.2695 17.0023 12 17.2695 12 17.6001V18.7661C12 19.4476 12.5328 20 13.19 20H14.3781C14.717 20 14.9924 19.7268 14.9951 19.388V19.388C14.9978 19.0454 14.7208 18.7661 14.3781 18.7661H13.7975H13.4938H13.4875L13.19 18.4814V18.1966V17.6001C13.19 17.2735 12.9267 17.0079 12.6001 17.0051V17.0051Z" fill="white"/>
<path d="M19.3999 14.9949C19.7305 14.9977 20 14.7305 20 14.3999V13.2339C20 12.5524 19.4672 12 18.81 12H17.6219C17.283 12 17.0076 12.2732 17.0049 12.612V12.612C17.0022 12.9546 17.2792 13.2339 17.6219 13.2339H18.2025H18.5062H18.5125L18.81 13.5186V13.8034V14.3999C18.81 14.7265 19.0733 14.9921 19.3999 14.9949V14.9949Z" fill="white"/>
<path d="M21.6006 16.7002C22.3736 16.7004 23 17.3275 23 18.1006V21.6006C22.9998 22.3735 22.3735 22.9998 21.6006 23H18.1006C17.3275 23 16.7004 22.3736 16.7002 21.6006V18.1006C16.7002 17.3274 17.3274 16.7002 18.1006 16.7002H21.6006ZM18.1006 21.6006H21.6006V18.1006H18.1006V21.6006Z" fill="white"/>
</g>
</g>
<defs>
<clipPath id="clip0_4138_11022">
<rect width="32" height="32" fill="white"/>
</clipPath>
<clipPath id="clip1_4138_11022">
<rect width="16" height="16" fill="white" transform="translate(8 8)"/>
</clipPath>
</defs>
</svg>
