<svg width="24" height="24" viewBox="0 0 24 24" fill="none" xmlns="http://www.w3.org/2000/svg">
<path fill-rule="evenodd" clip-rule="evenodd" d="M12.0004 2C11.6314 2 11.2624 2.195 11.0804 2.586L8.80544 7.851C8.66144 8.157 8.37444 8.372 8.03944 8.424L2.86144 9.219C2.04744 9.344 1.71344 10.337 2.28744 10.929L6.10444 14.455C6.32744 14.685 6.42844 15.007 6.37744 15.323L5.07344 20.823C4.96744 21.478 5.48844 22.003 6.07544 22.003C6.23844 22.003 6.40644 21.962 6.56744 21.873L11.5064 19.358C11.6604 19.273 11.8304 19.23 12.0004 19.23C12.1704 19.23 12.3404 19.273 12.4934 19.358L17.3444 21.873C17.5064 21.962 17.6744 22.003 17.8364 22.003C18.4244 22.003 18.9444 21.478 18.8384 20.823L17.6234 15.323C17.5714 15.007 17.6724 14.685 17.8964 14.455L21.7124 10.929C22.2864 10.337 21.9534 9.344 21.1394 9.219L15.9604 8.424C15.6254 8.372 15.3384 8.157 15.1954 7.851L12.9204 2.586C12.7374 2.195 12.3694 2 12.0004 2ZM12.0004 5.499L13.3594 8.644C13.3664 8.661 13.3754 8.679 13.3834 8.696C13.8104 9.61 14.6594 10.248 15.6564 10.4L18.8124 10.885L16.5384 12.986C16.5124 13.011 16.4864 13.036 16.4614 13.062C15.8004 13.742 15.4964 14.708 15.6484 15.645C15.6544 15.682 15.6624 15.719 15.6704 15.755L16.4184 19.14L13.4334 17.593C12.9934 17.355 12.4994 17.23 12.0004 17.23C11.5044 17.23 11.0124 17.354 10.5754 17.588L7.52744 19.14L8.32344 15.785C8.33444 15.738 8.34444 15.691 8.35244 15.644C8.50344 14.707 8.19944 13.742 7.53844 13.062C7.51444 13.036 7.48744 13.011 7.46144 12.986L5.18844 10.885L8.34344 10.4C9.34044 10.248 10.1894 9.611 10.6164 8.697C10.6254 8.68 10.6334 8.662 10.6414 8.644L12.0004 5.499Z" fill="currentColor"/>
</svg>
