<svg width="16" height="16" viewBox="0 0 16 16" fill="none" xmlns="http://www.w3.org/2000/svg">
<rect x="7" y="10" width="2" height="2" rx="1" fill="#A1A3A7"/>
<path d="M7.38526 5.93278C7.38526 5.63364 7.64362 5.38526 7.96968 5.38526C8.29476 5.38526 8.55296 5.63377 8.55296 5.93278C8.55635 6.15507 8.52747 6.19852 8.18716 6.44691L8.16039 6.46644C7.38594 7.03156 7.11124 7.50234 7.15311 8.32328L7.15205 8.42076C7.15205 8.87398 7.51811 9.24004 7.96968 9.24004C8.42124 9.24004 8.78731 8.87398 8.78731 8.42241V8.28164C8.77652 8.05395 8.79194 8.02993 9.12429 7.78742L9.15119 7.76779C9.91824 7.20793 10.2009 6.73722 10.1881 5.92004C10.1882 4.72356 9.19123 3.75 7.96968 3.75C6.74572 3.75 5.75 4.72482 5.75 5.93278C5.75 6.38435 6.11607 6.75041 6.56763 6.75041C7.0192 6.75041 7.38526 6.38435 7.38526 5.93278Z" fill="#A1A3A7"/>
</svg>
