<svg width="25" height="24" viewBox="0 0 25 24" fill="none" xmlns="http://www.w3.org/2000/svg">
<path id="Union" fill-rule="evenodd" clip-rule="evenodd" d="M8.01153 3.90476C7.61862 3.90476 7.2418 4.05527 6.96396 4.32318C6.68613 4.59109 6.53005 4.95445 6.53005 5.33333C6.53005 5.71221 6.68613 6.07558 6.96396 6.34349C7.2418 6.6114 7.61862 6.7619 8.01153 6.7619H11.1266C11.006 6.45773 10.8534 6.12325 10.6646 5.7923C10.0434 4.70318 9.19069 3.90476 8.01153 3.90476ZM12.3325 4.76599C11.5818 3.49577 10.2258 2 8.01153 2C7.09473 2 6.21548 2.35119 5.56721 2.97631C4.91894 3.60143 4.55474 4.44928 4.55474 5.33333C4.55474 6.15536 4.86963 6.94609 5.43499 7.55556H3.24161C2.73953 7.55556 2.33252 7.91088 2.33252 8.34921V12.3175C2.33252 12.7558 2.73953 13.1111 3.24161 13.1111H3.44363V21.1667C3.44363 21.6269 3.88582 22 4.43128 22L12.3325 22L20.2338 22C20.7792 22 21.2214 21.6269 21.2214 21.1667V13.1111H21.4234C21.9255 13.1111 22.3325 12.7558 22.3325 12.3175V8.34921C22.3325 7.91088 21.9255 7.55556 21.4234 7.55556H19.2301C19.7954 6.94609 20.1103 6.15536 20.1103 5.33333C20.1103 4.44928 19.7461 3.60143 19.0978 2.97631C18.4496 2.35119 17.5703 2 16.6535 2C14.4392 2 13.0833 3.49577 12.3325 4.76599ZM13.4436 20.3333H19.2461V13.1111H13.4436V20.3333ZM11.2214 13.1111V20.3333H5.41894V13.1111H11.2214ZM13.4436 11.5238H20.5143V9.14286H13.4436V11.5238ZM11.2214 9.14286V11.5238H4.1507V9.14286H11.2214ZM16.6535 6.7619H13.5384C13.659 6.45773 13.8116 6.12325 14.0004 5.7923C14.6216 4.70318 15.4744 3.90476 16.6535 3.90476C17.0464 3.90476 17.4232 4.05527 17.7011 4.32318C17.9789 4.59109 18.135 4.95445 18.135 5.33333C18.135 5.71221 17.9789 6.07558 17.7011 6.34349C17.4232 6.6114 17.0464 6.7619 16.6535 6.7619Z" fill="currentColor"/>
</svg>
