<svg width="16" height="16" viewBox="0 0 16 16" fill="none" xmlns="http://www.w3.org/2000/svg">
<path fill-rule="evenodd" clip-rule="evenodd" d="M10.6666 5.9995C11.4019 5.9995 11.9999 6.5975 11.9999 7.33283C11.9999 8.06816 11.4019 8.66616 10.6666 8.66616C9.93123 8.66616 9.33323 8.06816 9.33323 7.33283C9.33323 6.5975 9.93123 5.9995 10.6666 5.9995ZM5.3319 2.66683C6.06723 2.66683 6.66523 3.26483 6.66523 4.00016C6.66523 4.7355 6.06723 5.3335 5.3319 5.3335C4.59723 5.3335 3.99857 4.7355 3.99857 4.00016C3.99857 3.26483 4.59723 2.66683 5.3319 2.66683ZM15.3046 13.8128C14.8459 12.2382 14.0292 10.2422 12.1106 9.56883C12.8446 9.0935 13.3332 8.27083 13.3332 7.33283C13.3332 5.86216 12.1372 4.66616 10.6666 4.66616C9.3179 4.66616 8.21123 5.67616 8.0359 6.9775C7.6839 6.67216 7.2639 6.4155 6.76723 6.24016C7.5059 5.7655 7.99857 4.9415 7.99857 4.00016C7.99857 2.5295 6.80257 1.3335 5.3319 1.3335C3.86123 1.3335 2.66523 2.5295 2.66523 4.00016C2.66523 4.93816 3.15457 5.7615 3.88923 6.23616C1.96923 6.9095 1.15257 8.90616 0.693232 10.4815C0.590566 10.8348 0.792566 11.2055 1.14657 11.3082C1.20857 11.3262 1.27123 11.3348 1.33323 11.3348C1.62257 11.3348 1.88857 11.1462 1.97323 10.8548C2.69323 8.3875 3.6979 7.33483 5.33323 7.33483C6.77523 7.33483 7.70123 8.1375 8.39523 9.97416C7.0519 10.8555 6.4119 12.4848 6.02457 13.8128C5.9219 14.1662 6.12523 14.5368 6.4779 14.6395C6.54057 14.6575 6.60323 14.6662 6.66457 14.6662C6.9539 14.6662 7.2199 14.4775 7.30457 14.1862C8.0239 11.7188 9.02857 10.6662 10.6646 10.6662C12.2999 10.6662 13.3046 11.7188 14.0246 14.1862C14.1272 14.5388 14.4926 14.7422 14.8512 14.6395C15.2052 14.5368 15.4072 14.1662 15.3046 13.8128Z" fill="currentColor"/>
</svg>
