<svg width="16" height="16" viewBox="0 0 16 16" fill="none" xmlns="http://www.w3.org/2000/svg">
<path fill-rule="evenodd" clip-rule="evenodd" d="M14 10.0002V11.3335C14 12.0699 13.403 12.6668 12.6667 12.6668H2.66667C1.93029 12.6668 1.33333 12.0699 1.33333 11.3335V4.66683C1.33333 3.93045 1.93029 3.3335 2.66667 3.3335H12.6667C13.403 3.3335 14 3.93045 14 4.66683V6.00016C14.3682 6.00016 14.6667 6.29864 14.6667 6.66683V9.3335C14.6667 9.70169 14.3682 10.0002 14 10.0002ZM12.6667 6.00016V4.66683H2.66667V11.3335H12.6667V10.0002H10.6667C10.2985 10.0002 10 9.70169 10 9.3335V6.66683C10 6.29864 10.2985 6.00016 10.6667 6.00016H12.6667ZM11.3333 8.66683V7.3335H13.3333V8.66683H11.3333Z" fill="currentColor"/>
</svg>
