;<svg width="161" height="160" viewBox="0 0 161 160" fill="none" xmlns="http://www.w3.org/2000/svg">
  <path
    d="M66.79 146.58C93.4598 146.58 115.08 124.96 115.08 98.29C115.08 71.6202 93.4598 50 66.79 50C40.1202 50 18.5 71.6202 18.5 98.29C18.5 124.96 40.1202 146.58 66.79 146.58Z"
    fill="#1C1C1C"
  />
  <path
    d="M99.85 125.7C126.001 125.7 147.2 104.501 147.2 78.35C147.2 52.1993 126.001 31 99.85 31C73.6993 31 52.5 52.1993 52.5 78.35C52.5 104.501 73.6993 125.7 99.85 125.7Z"
    fill="#1C1C1C"
  />
  <path
    d="M99.85 125.7C126.001 125.7 147.2 104.501 147.2 78.35C147.2 52.1993 126.001 31 99.85 31C73.6993 31 52.5 52.1993 52.5 78.35C52.5 104.501 73.6993 125.7 99.85 125.7Z"
    fill="#1C1C1C"
    stroke="#A1A3A7"
    stroke-width="1.33"
    stroke-miterlimit="10"
    stroke-linecap="round"
    stroke-dasharray="6 6"
  />
  <path
    d="M44.0699 74.4904C60.5943 74.4904 73.9899 61.0947 73.9899 44.5704C73.9899 28.046 60.5943 14.6504 44.0699 14.6504C27.5455 14.6504 14.1499 28.046 14.1499 44.5704C14.1499 61.0947 27.5455 74.4904 44.0699 74.4904Z"
    fill="#1C1C1C"
  />
  <path
    d="M46.6344 47.5343L46.0344 47.5343L46.0344 48.1343L46.0344 57.5376C46.0344 58.9374 44.8997 60.0721 43.5 60.0721C42.1003 60.0721 40.9656 58.9374 40.9656 57.5376L40.9656 48.1343L40.9656 47.5343L40.3656 47.5343L30.9622 47.5343C29.5625 47.5343 28.4278 46.3996 28.4278 44.9999C28.4278 43.6001 29.5625 42.4654 30.9622 42.4654L40.3656 42.4654L40.9656 42.4654L40.9656 41.8654L40.9656 32.4621C40.9656 31.0623 42.1003 29.9276 43.5 29.9276C44.8997 29.9276 46.0344 31.0623 46.0344 32.4621L46.0344 41.8654L46.0344 42.4654L46.6344 42.4654L56.0378 42.4654C57.4375 42.4654 58.5722 43.6001 58.5722 44.9999C58.5722 46.3996 57.4375 47.5343 56.0378 47.5343L46.6344 47.5343Z"
    stroke="#A1A3A7"
    stroke-width="1.2"
  />
  <path
    fill-rule="evenodd"
    clip-rule="evenodd"
    d="M44.07 15.3C27.9046 15.3 14.8 28.4046 14.8 44.57C14.8 60.7354 27.9046 73.84 44.07 73.84C60.2354 73.84 73.34 60.7354 73.34 44.57C73.34 28.4046 60.2354 15.3 44.07 15.3ZM13.5 44.57C13.5 27.6867 27.1867 14 44.07 14C60.9533 14 74.64 27.6867 74.64 44.57C74.64 61.4533 60.9533 75.14 44.07 75.14C27.1867 75.14 13.5 61.4533 13.5 44.57Z"
    fill="#A1A3A7"
  />
  <path
    fill-rule="evenodd"
    clip-rule="evenodd"
    d="M82.2364 80.156C80.2214 82.8744 79.1744 86.1542 78.8343 88.3308C78.7789 88.6855 78.4464 88.9281 78.0917 88.8727C77.7371 88.8172 77.4945 88.4848 77.5499 88.1301C77.9149 85.7939 79.0256 82.3045 81.192 79.3818C83.3703 76.4432 86.6492 74.042 91.3075 74.042C95.9795 74.042 99.1959 76.6532 101.213 79.1915C102.222 80.4624 102.945 81.73 103.415 82.6786C103.65 83.1537 103.823 83.551 103.938 83.8316C103.996 83.972 104.039 84.0833 104.068 84.1608C104.083 84.1996 104.094 84.2299 104.101 84.2511L104.11 84.2761L104.113 84.2834L104.114 84.2857L104.114 84.2865C104.114 84.2869 104.114 84.2871 103.5 84.4996L104.114 84.2871C104.231 84.6264 104.052 84.9966 103.712 85.1139C103.373 85.2312 103.003 85.0515 102.886 84.7125L102.886 84.7122L102.886 84.7121L102.884 84.7089L102.878 84.6918C102.873 84.676 102.864 84.6512 102.851 84.6181C102.826 84.5519 102.788 84.4526 102.735 84.3248C102.631 84.069 102.47 83.7001 102.25 83.2557C101.809 82.3655 101.133 81.1811 100.195 80.0002C98.3152 77.6346 95.4354 75.342 91.3075 75.342C87.1658 75.342 84.2395 77.4536 82.2364 80.156Z"
    fill="#A1A3A7"
  />
  <path
    d="M100.615 65.8077C100.615 70.9482 96.4482 75.1154 91.3077 75.1154C86.1672 75.1154 82 70.9482 82 65.8077C82 60.6672 86.1672 56.5 91.3077 56.5C96.4482 56.5 100.615 60.6672 100.615 65.8077Z"
    fill="#1C1C1C"
  />
  <path
    fill-rule="evenodd"
    clip-rule="evenodd"
    d="M91.3077 73.7854C95.7137 73.7854 99.2854 70.2137 99.2854 65.8077C99.2854 61.4017 95.7137 57.83 91.3077 57.83C86.9017 57.83 83.33 61.4017 83.33 65.8077C83.33 70.2137 86.9017 73.7854 91.3077 73.7854ZM91.3077 75.1154C96.4482 75.1154 100.615 70.9482 100.615 65.8077C100.615 60.6672 96.4482 56.5 91.3077 56.5C86.1672 56.5 82 60.6672 82 65.8077C82 70.9482 86.1672 75.1154 91.3077 75.1154Z"
    fill="#A1A3A7"
  />
  <path
    fill-rule="evenodd"
    clip-rule="evenodd"
    d="M102.044 87.656C100.029 90.3744 98.9825 93.6542 98.6424 95.8308C98.587 96.1855 98.2545 96.4281 97.8998 96.3727C97.5452 96.3172 97.3026 95.9848 97.358 95.6301C97.723 93.2939 98.8337 89.8045 101 86.8818C103.178 83.9432 106.457 81.542 111.116 81.542C115.771 81.542 119.117 83.9399 121.382 86.8715C123.636 89.7897 124.855 93.2755 125.293 95.6107C125.359 95.9635 125.127 96.3032 124.774 96.3693C124.421 96.4355 124.081 96.2031 124.015 95.8502C123.607 93.6726 122.457 90.3892 120.353 87.6663C118.26 84.9569 115.26 82.842 111.116 82.842C106.974 82.842 104.048 84.9536 102.044 87.656Z"
    fill="#A1A3A7"
  />
  <path
    d="M120.423 73.3077C120.423 78.4482 116.256 82.6154 111.116 82.6154C105.975 82.6154 101.808 78.4482 101.808 73.3077C101.808 68.1672 105.975 64 111.116 64C116.256 64 120.423 68.1672 120.423 73.3077Z"
    fill="#1C1C1C"
  />
  <path
    fill-rule="evenodd"
    clip-rule="evenodd"
    d="M111.116 81.2854C115.522 81.2854 119.093 77.7137 119.093 73.3077C119.093 68.9017 115.522 65.33 111.116 65.33C106.71 65.33 103.138 68.9017 103.138 73.3077C103.138 77.7137 106.71 81.2854 111.116 81.2854ZM111.116 82.6154C116.256 82.6154 120.423 78.4482 120.423 73.3077C120.423 68.1672 116.256 64 111.116 64C105.975 64 101.808 68.1672 101.808 73.3077C101.808 78.4482 105.975 82.6154 111.116 82.6154Z"
    fill="#A1A3A7"
  />
</svg>
