<svg width="24" height="24" viewBox="0 0 24 24" fill="none" xmlns="http://www.w3.org/2000/svg">
<path fill-rule="evenodd" clip-rule="evenodd" d="M11.9988 8.00235C12.5508 8.00235 12.9988 8.44935 12.9988 9.00235V13.0023C12.9988 13.5543 12.5508 14.0023 11.9988 14.0023C11.4458 14.0023 10.9988 13.5543 10.9988 13.0023V9.00235C10.9988 8.44935 11.4458 8.00235 11.9988 8.00235Z" fill="#FF5F72"/>
<path fill-rule="evenodd" clip-rule="evenodd" d="M11.9988 15.7523C12.6888 15.7523 13.2488 16.3123 13.2488 17.0023C13.2488 17.6923 12.6888 18.2523 11.9988 18.2523C11.3088 18.2523 10.7488 17.6923 10.7488 17.0023C10.7488 16.3123 11.3088 15.7523 11.9988 15.7523Z" fill="#FF5F72"/>
<path fill-rule="evenodd" clip-rule="evenodd" d="M11.9998 2.00034C11.4978 2.00034 10.9958 2.25034 10.7168 2.75234L1.18682 19.8293C0.643825 20.8043 1.35182 22.0003 2.47082 22.0003H21.5298C22.6488 22.0003 23.3558 20.8043 22.8128 19.8293L13.2838 2.75234C13.0038 2.25034 12.5018 2.00034 11.9998 2.00034ZM11.9998 4.55434L20.6238 20.0083H3.37682L11.9998 4.55434Z" fill="#FF5F72"/>
</svg>
