<svg width="24" height="24" viewBox="0 0 24 24" fill="none" xmlns="http://www.w3.org/2000/svg">
<path fill-rule="evenodd" clip-rule="evenodd" d="M12.4974 3.99999C11.3351 3.99696 10.1884 4.26854 9.15088 4.7926L9.14709 4.79451C7.90143 5.41707 6.8537 6.37413 6.12125 7.55852C5.3888 8.7429 5.00057 10.1078 5.00003 11.5004L5.00002 11.5026C4.99699 12.665 5.26857 13.8116 5.79263 14.8491C5.91284 15.0871 5.93303 15.3633 5.84871 15.6162L4.58117 19.4189L8.3838 18.1513C8.63674 18.067 8.91289 18.0872 9.15088 18.2074C10.1884 18.7315 11.3351 19.003 12.4974 19L12.4996 19C13.8922 18.9995 15.2571 18.6112 16.4415 17.8788C17.6259 17.1463 18.583 16.0986 19.2055 14.8529L19.2074 14.8491C19.7315 13.8116 20.0031 12.665 20 11.5026C19.9942 9.28173 19.122 7.4779 17.8221 6.17796C16.5221 4.87802 14.7183 4.00578 12.4974 3.99999ZM8.25107 3.00644C9.56927 2.34099 11.026 1.99615 12.5026 2C15.2818 2.00725 17.584 3.11149 19.2363 4.76375C20.8885 6.41601 21.9928 8.71827 22 11.4974C22.0039 12.974 21.6591 14.4306 20.9937 15.7488C20.2051 17.3259 18.9931 18.6524 17.4934 19.5798C15.9935 20.5074 14.2651 20.9991 12.5015 21H12.5004L12.5 20L12.5026 21L12.5015 21C11.1668 21.0033 9.84847 20.7218 8.63398 20.1761L8.24917 19.9926C8.37619 20.0568 8.50449 20.1179 8.63398 20.1761L3.31625 21.9487C2.95692 22.0685 2.56075 21.9749 2.29292 21.7071C2.02509 21.4393 1.93157 21.0431 2.05134 20.6838L3.82392 15.366C3.88209 15.4955 3.94327 15.6238 4.00743 15.7509L3.82392 15.366C3.27825 14.1516 2.99671 12.8332 3.00003 11.4985L3.00003 11.4996L4.00003 11.5L3.00003 11.4974L3.00003 11.4985C3.00091 9.73499 3.49266 8.00649 4.42024 6.50658C5.34764 5.00696 6.67407 3.79504 8.25107 3.00644ZM8.25107 3.00644L8.24917 3.0074L8.70003 3.9L8.25297 3.00549L8.25107 3.00644Z" fill="black"/>
</svg>
