<svg width="24" height="24" viewBox="0 0 24 24" fill="none" xmlns="http://www.w3.org/2000/svg">
<path fill-rule="evenodd" clip-rule="evenodd" d="M9.15845 6.17415C9.36972 5.94195 9.71225 5.94195 9.92352 6.17415L14.8415 11.5796C15.0528 11.8118 15.0528 12.1882 14.8415 12.4204L9.92352 17.8258C9.71225 18.0581 9.36972 18.0581 9.15845 17.8258C8.94718 17.5936 8.94718 17.2172 9.15845 16.985L13.6939 12L9.15845 7.01504C8.94718 6.78283 8.94718 6.40636 9.15845 6.17415Z" fill="black"/>
<path fill-rule="evenodd" clip-rule="evenodd" d="M8.78862 5.83767C9.19824 5.38744 9.88372 5.38744 10.2933 5.83767L15.2114 11.2431C15.5962 11.666 15.5962 12.334 15.2114 12.7569L10.2933 18.1623C9.88372 18.6126 9.19824 18.6126 8.78862 18.1623C8.40379 17.7394 8.40379 17.0714 8.78862 16.6485L13.018 12L8.78862 7.35152C8.40379 6.92856 8.40379 6.26062 8.78862 5.83767ZM9.54096 6.50023C9.54096 6.50023 9.53542 6.50279 9.52828 6.51064C9.51378 6.52658 9.5 6.55546 9.5 6.59459C9.5 6.63373 9.51378 6.66261 9.52828 6.67855L14.0638 11.6635C14.2373 11.8543 14.2373 12.1457 14.0638 12.3365L9.52828 17.3215C9.51378 17.3374 9.5 17.3663 9.5 17.4054C9.5 17.4445 9.51378 17.4734 9.52828 17.4894C9.53542 17.4972 9.54096 17.4998 9.54096 17.4998C9.54096 17.4998 9.54654 17.4972 9.55368 17.4894L14.4717 12.084C14.4862 12.068 14.5 12.0391 14.5 12C14.5 11.9609 14.4862 11.932 14.4717 11.916L9.55368 6.51064C9.54654 6.50279 9.54096 6.50023 9.54096 6.50023Z" fill="black"/>
</svg>
