<svg width="24" height="24" viewBox="0 0 24 24" fill="none" xmlns="http://www.w3.org/2000/svg">
<path fill-rule="evenodd" clip-rule="evenodd" d="M22.0003 11.9997C22.0003 17.5227 17.5223 21.9997 12.0003 21.9997C6.4773 21.9997 2.0003 17.5227 2.0003 11.9997C2.0003 6.47769 6.4773 1.99969 12.0003 1.99969C17.5223 1.99969 22.0003 6.47769 22.0003 11.9997ZM13.4146 12.0001L16.8548 8.56029C17.2438 8.17029 17.2438 7.53529 16.8548 7.14529C16.4648 6.75629 15.8298 6.75629 15.4398 7.14529L12 10.5855L8.5598 7.14529C8.1708 6.75629 7.5348 6.75629 7.1458 7.14529C6.7568 7.53529 6.7568 8.17029 7.1458 8.56029L10.5856 12.0001L7.1458 15.4403C6.7568 15.8293 6.7568 16.4653 7.1458 16.8543C7.5348 17.2433 8.1708 17.2433 8.5598 16.8543L12 13.4145L15.4398 16.8543C15.8298 17.2433 16.4648 17.2433 16.8548 16.8543C17.2438 16.4653 17.2438 15.8293 16.8548 15.4403L13.4146 12.0001Z" fill="black"/>
</svg>
