<svg width="24" height="24" viewBox="0 0 24 24" fill="none" xmlns="http://www.w3.org/2000/svg">
<path fill-rule="evenodd" clip-rule="evenodd" d="M13.0005 15.5839L13.0005 3.0009C13.0005 2.4479 12.5525 2.0009 12.0005 2.0009C11.4475 2.0009 11.0005 2.4479 11.0005 3.0009L11.0005 15.5839L6.8785 11.4629C6.4875 11.0719 5.8545 11.0719 5.4645 11.4629C5.0735 11.8539 5.0735 12.4859 5.4645 12.8769L11.1215 18.5339C11.1505 18.5629 11.1815 18.5899 11.2125 18.6139C11.3965 18.8489 11.6805 18.9979 12.0005 18.9979C12.3195 18.9979 12.6045 18.8489 12.7875 18.6139C12.8185 18.5899 12.8505 18.5629 12.8785 18.5339L18.5355 12.8769C18.9265 12.4859 18.9265 11.8539 18.5355 11.4629C18.1455 11.0719 17.5125 11.0719 17.1215 11.4629L13.0005 15.5839Z" fill="black"/>
<path fill-rule="evenodd" clip-rule="evenodd" d="M3.0005 20L21.0005 20C21.5505 20 22.0005 20.45 22.0005 21C22.0005 21.55 21.5505 22 21.0005 22L3.0005 22C2.4495 22 2.0005 21.55 2.0005 21C2.0005 20.45 2.4495 20 3.0005 20Z" fill="black"/>
</svg>
