<svg width="18" height="18" viewBox="0 0 18 18" fill="none" xmlns="http://www.w3.org/2000/svg">
<path fill-rule="evenodd" clip-rule="evenodd" d="M16.3662 0.96967C16.6591 1.26256 16.6591 1.73744 16.3662 2.03033L15.4666 2.92987L17.0811 4.54434C17.2218 4.68499 17.3008 4.87576 17.3008 5.07467C17.3008 5.27358 17.2218 5.46435 17.0811 5.605L14.5788 8.10727C14.2859 8.40016 13.8111 8.40016 13.5182 8.10727L11.9037 6.4928L9.98627 8.41023C10.1999 8.70303 10.3792 9.02033 10.5203 9.35603C10.7594 9.92534 10.8836 10.5363 10.8857 11.1538C10.8878 11.7713 10.7677 12.3832 10.5323 12.954C10.297 13.5249 9.951 14.0436 9.51436 14.4803C9.07771 14.9169 8.55901 15.2629 7.98811 15.4982C7.41722 15.7336 6.8054 15.8537 6.1879 15.8516C5.5704 15.8496 4.9594 15.7254 4.39009 15.4862C3.82079 15.247 3.30441 14.8976 2.87071 14.458L2.86508 14.4523C2.01219 13.5693 1.54029 12.3865 1.55096 11.1589C1.56163 9.93124 2.05404 8.7569 2.92215 7.8888C3.79025 7.02069 4.96459 6.52828 6.19223 6.51761C7.17113 6.5091 8.12147 6.80744 8.91409 7.3611L15.3055 0.96967C15.5984 0.676777 16.0733 0.676777 16.3662 0.96967ZM8.46347 8.92923C8.45676 8.9232 8.45013 8.91702 8.44358 8.9107C7.84343 8.33104 7.03961 8.0103 6.20527 8.01755C5.37092 8.0248 4.5728 8.35946 3.98281 8.94946C3.39281 9.53945 3.05815 10.3376 3.0509 11.1719C3.04366 12.0049 3.36336 12.8075 3.94126 13.4073C4.23544 13.7048 4.58538 13.9412 4.97108 14.1033C5.358 14.2658 5.77325 14.3502 6.19292 14.3516C6.6126 14.353 7.02841 14.2714 7.41641 14.1115C7.80441 13.9515 8.15694 13.7164 8.4537 13.4196C8.75045 13.1229 8.98558 12.7703 9.14553 12.3823C9.30549 11.9943 9.38711 11.5785 9.3857 11.1589C9.3843 10.7392 9.29989 10.3239 9.13734 9.93701C8.97933 9.56091 8.75052 9.21879 8.46347 8.92923ZM12.9644 5.43214L14.0485 6.51628L15.4901 5.07467L14.406 3.99053L12.9644 5.43214Z" fill="black"/>
</svg>
