<svg width="24" height="24" viewBox="0 0 24 24" fill="none" xmlns="http://www.w3.org/2000/svg">
<path fill-rule="evenodd" clip-rule="evenodd" d="M15.9999 1.99989H7.99988C6.35088 1.99989 4.99988 3.34989 4.99988 4.99989V18.9999C4.99988 20.6499 6.35088 21.9999 7.99988 21.9999H15.9999C17.6499 21.9999 18.9999 20.6499 18.9999 18.9999V4.99989C18.9999 3.34989 17.6499 1.99989 15.9999 1.99989ZM15.9999 3.99989C16.5419 3.99989 16.9999 4.45789 16.9999 4.99989V18.9999C16.9999 19.5419 16.5419 19.9999 15.9999 19.9999H7.99988C7.45788 19.9999 6.99988 19.5419 6.99988 18.9999V4.99989C6.99988 4.45789 7.45788 3.99989 7.99988 3.99989H15.9999Z" fill="black"/>
<path fill-rule="evenodd" clip-rule="evenodd" d="M11.9999 16.7567C11.3099 16.7567 10.7499 17.3167 10.7499 18.0067C10.7499 18.6967 11.3099 19.2567 11.9999 19.2567C12.6899 19.2567 13.2499 18.6967 13.2499 18.0067C13.2499 17.3167 12.6899 16.7567 11.9999 16.7567Z" fill="black"/>
</svg>
