<svg width="24" height="24" viewBox="0 0 24 24" fill="none" xmlns="http://www.w3.org/2000/svg">
<path fill-rule="evenodd" clip-rule="evenodd" d="M22.9581 20.726C21.4142 15.4337 19.1423 12.271 15.5289 11.3155C17.0085 10.4472 18.002 8.83966 18.002 7.0002C18.002 4.23891 15.7633 2.0002 13.002 2.0002C10.24 2.0002 8.00201 4.23861 8.00201 7.0002C8.00201 8.84875 9.00481 10.4629 10.4963 11.3281C8.79627 11.7949 7.35884 12.7645 6.16807 14.2063C5.81639 14.6322 5.8765 15.2625 6.30233 15.6141C6.72817 15.9658 7.35847 15.9057 7.71016 15.4799C9.07168 13.8313 10.77 13.0061 12.9981 13.0061C17.044 13.0061 19.3817 15.6079 21.0381 21.2861C21.1928 21.8163 21.748 22.1208 22.2782 21.9661C22.8083 21.8114 23.1128 21.2562 22.9581 20.726ZM16.002 7.0002C16.002 8.65691 14.6587 10.0002 13.002 10.0002C11.3447 10.0002 10.002 8.6573 10.002 7.0002C10.002 5.3431 11.3447 4.0002 13.002 4.0002C14.6587 4.0002 16.002 5.34348 16.002 7.0002Z" fill="black"/>
<path d="M11.5823 20.0051H3.0004C2.44811 20.0051 2.0004 19.5574 2.0004 19.0051C2.0004 18.4528 2.44811 18.0051 3.0004 18.0051H11.5839L11.3008 17.722C10.9103 17.3315 10.9103 16.6983 11.3008 16.3078C11.6913 15.9173 12.3245 15.9173 12.715 16.3078L14.704 18.2968C15.0945 18.6872 15.0945 19.3203 14.7042 19.7108L12.7152 21.7008C12.3248 22.0915 11.6916 22.0916 11.301 21.7012C10.9103 21.3108 10.9102 20.6776 11.3006 20.287L11.5823 20.0051Z" fill="black"/>
</svg>
