<svg width="16" height="16" viewBox="0 0 16 16" fill="none" xmlns="http://www.w3.org/2000/svg">
<path d="M3.85329 11.4832C3.46662 11.9532 3.09329 12.4166 2.70662 12.8732C2.55329 13.0566 2.37662 13.2199 2.20662 13.3899C2.00662 13.5899 1.79329 13.6066 1.62995 13.4432C1.46995 13.2832 1.48995 13.0599 1.68662 12.8666C2.31329 12.2566 2.85995 11.5866 3.33662 10.8532C3.40329 10.7499 3.39995 10.6766 3.34329 10.5732C2.72662 9.42657 2.11662 8.27991 1.63995 7.06657C1.33995 6.29991 1.06995 5.51991 1.01662 4.68991C0.996621 4.35324 1.00995 3.99657 1.08662 3.66991C1.23329 3.03657 1.62662 2.59657 2.28329 2.47657C2.97329 2.34991 3.55995 2.57991 3.96662 3.15657C4.62329 4.09324 5.01329 5.13991 5.15329 6.27657C5.34662 7.81991 5.05995 9.26991 4.32329 10.6366C4.29662 10.6866 4.30662 10.7732 4.32995 10.8299C4.38662 10.9532 4.45995 11.0666 4.52995 11.1832C4.75995 11.5666 5.18329 11.6266 5.50329 11.3066C5.88329 10.9232 6.26995 10.5399 6.62329 10.1299C7.31995 9.31991 8.42995 9.54991 8.89329 10.3966C9.09995 10.7732 9.49995 10.8432 9.82662 10.5632C10.0133 10.4032 10.1933 10.2399 10.38 10.0799C11.1266 9.43324 12.19 9.70324 12.5366 10.6266C12.6566 10.9432 12.83 11.0666 13.1766 11.0666C13.65 11.0666 14.1233 11.0666 14.6 11.0666C14.9 11.0666 15.08 11.3366 14.9633 11.5899C14.9 11.7232 14.7866 11.8032 14.6433 11.8032C14.09 11.8066 13.5366 11.8266 12.9866 11.7899C12.4166 11.7532 12.0433 11.4199 11.85 10.8832C11.7366 10.5732 11.5066 10.4166 11.2033 10.4699C11.0933 10.4899 10.9766 10.5499 10.8866 10.6232C10.6966 10.7699 10.52 10.9332 10.3433 11.0966C9.60995 11.7699 8.63329 11.4666 8.21995 10.7299C8.11995 10.5532 7.99329 10.4166 7.78662 10.3799C7.55662 10.3399 7.36995 10.4166 7.21329 10.5866C6.83995 10.9866 6.45329 11.3732 6.08329 11.7766C5.40329 12.5166 4.31329 12.3366 3.87995 11.5299C3.86995 11.5132 3.85662 11.4966 3.84995 11.4866L3.85329 11.4832ZM3.81662 9.92991C3.83995 9.90991 3.84995 9.90324 3.85329 9.89657C3.86329 9.87991 3.87329 9.85991 3.87995 9.83991C4.80995 7.67324 4.64662 5.59324 3.38329 3.60657C3.16662 3.26657 2.82995 3.13324 2.43662 3.19991C2.04329 3.26324 1.86329 3.55657 1.77995 3.90991C1.66662 4.38991 1.74329 4.86324 1.85995 5.32991C2.26662 6.96324 3.04995 8.43991 3.81662 9.93324V9.92991Z" fill="#121312"/>
</svg>
