<svg width="24" height="24" viewBox="0 0 24 24" fill="none" xmlns="http://www.w3.org/2000/svg">
<path fill-rule="evenodd" clip-rule="evenodd" d="M3 4C3 3.44772 3.44772 3 4 3H12.8673C13.1326 3 13.3869 3.10539 13.5745 3.29299L21.1936 10.9141C21.7101 11.4338 22 12.1369 22 12.8696C22 13.6024 21.7101 14.3054 21.1936 14.8251L21.1915 14.8272L14.834 21.1864C14.5765 21.4443 14.2706 21.6489 13.9339 21.7885C13.5972 21.9281 13.2362 22 12.8717 22C12.5072 22 12.1463 21.9281 11.8096 21.7885C11.4729 21.6489 11.1671 21.4443 10.9095 21.1865C10.9095 21.1864 10.9096 21.1865 10.9095 21.1865L3.29321 13.577C3.10548 13.3895 3 13.135 3 12.8696V4ZM5 5V12.4551L12.3246 19.7731C12.3964 19.8451 12.4817 19.9021 12.5756 19.941C12.6695 19.98 12.7701 20 12.8717 20C12.9733 20 13.074 19.98 13.1678 19.941C13.2617 19.9021 13.347 19.8451 13.4189 19.7731L19.775 13.4153C19.7753 13.415 19.7755 13.4148 19.7758 13.4145C19.9194 13.2696 20 13.0738 20 12.8696C20 12.6655 19.9194 12.4696 19.7758 12.3247C19.7755 12.3245 19.7753 12.3242 19.775 12.3239L12.453 5H5ZM7 8C7 7.44772 7.44772 7 8 7H8.01C8.56228 7 9.01 7.44772 9.01 8C9.01 8.55228 8.56228 9 8.01 9H8C7.44772 9 7 8.55228 7 8Z" fill="black"/>
</svg>
