<svg width="24" height="24" viewBox="0 0 24 24" fill="none" xmlns="http://www.w3.org/2000/svg">
<path fill-rule="evenodd" clip-rule="evenodd" d="M14.998 4.99951C11.133 4.99951 7.99805 8.13451 7.99805 11.9995C7.99805 15.8655 11.133 18.9995 14.998 18.9995C18.864 18.9995 21.998 15.8655 21.998 11.9995C21.998 8.13451 18.864 4.99951 14.998 4.99951ZM14.998 6.99951C17.756 6.99951 19.998 9.24251 19.998 11.9995C19.998 14.7575 17.756 16.9995 14.998 16.9995C12.241 16.9995 9.99805 14.7575 9.99805 11.9995C9.99805 9.24251 12.241 6.99951 14.998 6.99951Z" fill="black"/>
<path d="M6.80447 5.35823C3.95932 6.29472 2.00012 8.95538 2.00012 11.9961C2.00012 15.0368 3.95932 17.6975 6.80447 18.634C7.32907 18.8066 7.89432 18.5213 8.06699 17.9968C8.23966 17.4722 7.95437 16.9069 7.42977 16.7342C5.39868 16.0657 4.00012 14.1664 4.00012 11.9961C4.00012 9.82579 5.39868 7.92651 7.42977 7.25797C7.95437 7.0853 8.23966 6.52005 8.06699 5.99545C7.89432 5.47085 7.32907 5.18556 6.80447 5.35823Z" fill="black"/>
</svg>
