<svg width="24" height="24" viewBox="0 0 24 24" fill="none" xmlns="http://www.w3.org/2000/svg">
<g clip-path="url(#clip0_2867_12351)">
<path fill-rule="evenodd" clip-rule="evenodd" d="M19.5117 12.0075C19.5117 7.8695 16.1475 4.50326 12.0117 4.5V1.5C17.6346 1.50316 22.2385 5.94795 22.5 11.5081V11.4716C22.509 11.6491 22.5135 11.8278 22.5135 12.0075C22.5135 12.1872 22.509 12.3658 22.5 12.5434V12.5069C22.2468 17.8913 17.9213 22.2284 12.5417 22.5H12.5419C12.5208 22.5011 12.4996 22.5021 12.4784 22.503C12.3218 22.51 12.1643 22.5135 12.006 22.5135M12.0117 22.5V19.5135C16.1475 19.5102 19.5117 16.144 19.5117 12.0075M12.0117 22.5H12V1.5C6.37713 1.50316 1.77319 5.94795 1.51172 11.5081V11.4716C1.50276 11.6491 1.49822 11.8278 1.49822 12.0075C1.49822 12.1872 1.50276 12.3658 1.51172 12.5434V12.5069C1.76493 17.8913 6.09047 22.2284 11.4701 22.5H11.4698C11.4711 22.5001 11.4724 22.5001 11.4737 22.5002C11.6499 22.509 11.8273 22.5135 12.0057 22.5135" fill="black"/>
</g>
<defs>
<clipPath id="clip0_2867_12351">
<rect width="24" height="24" fill="white"/>
</clipPath>
</defs>
</svg>
