<svg width="24" height="24" viewBox="0 0 24 24" fill="none" xmlns="http://www.w3.org/2000/svg">
<g clip-path="url(#clip0_2867_12291)">
<path d="M12.002 16.2C9.62002 16.2 7.68402 14.32 7.68402 12C7.68402 9.68 9.61802 7.8 12.004 7.8C14.388 7.8 16.32 9.68 16.32 12C16.32 14.32 14.388 16.2 12.002 16.2ZM21.168 13.164C21.218 12.78 21.256 12.396 21.256 12C21.256 11.604 21.218 11.208 21.168 10.8L23.772 8.844C23.8855 8.75561 23.963 8.62904 23.9903 8.4878C24.0175 8.34656 23.9925 8.20024 23.92 8.076L21.452 3.924C21.3786 3.79774 21.2625 3.7018 21.1247 3.65341C20.9868 3.60502 20.8363 3.60736 20.7 3.66L17.628 4.86C16.9888 4.37705 16.2879 3.98156 15.544 3.684L15.086 0.504003C15.0588 0.361065 14.9822 0.232251 14.8696 0.140111C14.757 0.0479708 14.6155 -0.00162552 14.47 3.41718e-06H9.53602C9.39018 -0.00209876 9.24827 0.0472818 9.13524 0.139463C9.02221 0.231643 8.94529 0.360722 8.91802 0.504003L8.46202 3.684C7.68402 3.984 7.01802 4.392 6.37802 4.86L3.30602 3.66C3.16951 3.60682 3.01848 3.60419 2.88021 3.65261C2.74194 3.70102 2.62554 3.79728 2.55202 3.924L0.0860188 8.076C0.0104325 8.19941 -0.0162927 8.34661 0.0110906 8.4887C0.0384738 8.6308 0.117987 8.75753 0.234019 8.844L2.83602 10.8C2.78326 11.1979 2.75454 11.5986 2.75002 12C2.75002 12.396 2.78802 12.78 2.83602 13.164L0.234019 15.156C0.117987 15.2425 0.0384738 15.3692 0.0110906 15.5113C-0.0162927 15.6534 0.0104325 15.8006 0.0860188 15.924L2.55202 20.076C2.70002 20.34 3.03402 20.436 3.30602 20.34L6.37802 19.128C7.01802 19.608 7.68402 20.016 8.46202 20.316L8.91802 23.496C8.94529 23.6393 9.02221 23.7684 9.13524 23.8605C9.24827 23.9527 9.39018 24.0021 9.53602 24H14.47C14.6155 24.0016 14.757 23.952 14.8696 23.8599C14.9822 23.7678 15.0588 23.6389 15.086 23.496L15.544 20.316C16.2884 20.0143 16.9892 19.6148 17.628 19.128L20.7 20.34C20.972 20.436 21.304 20.34 21.452 20.076L23.92 15.924C23.9925 15.7998 24.0175 15.6535 23.9903 15.5122C23.963 15.371 23.8855 15.2444 23.772 15.156L21.168 13.164Z" fill="black"/>
</g>
<defs>
<clipPath id="clip0_2867_12291">
<rect width="24" height="24" fill="white"/>
</clipPath>
</defs>
</svg>
