<svg width="24" height="25" viewBox="0 0 24 25" fill="none" xmlns="http://www.w3.org/2000/svg">
<path fill-rule="evenodd" clip-rule="evenodd" d="M18.4742 15.829C17.6336 15.8301 16.9474 15.1372 16.9485 14.2886V9.29919L6.60361 19.7432C6.01013 20.3423 5.03899 20.3423 4.44551 19.7432C3.85096 19.1429 3.85204 18.1635 4.44551 17.5644L14.7904 7.12041L9.84723 7.11932C9.00773 7.11932 8.32146 6.42647 8.32146 5.57892C8.32146 4.73138 9.00773 4.03853 9.84723 4.03853L18.4742 4.03962C18.6016 4.03744 18.7159 4.08319 18.8335 4.11261C18.9058 4.13113 18.9814 4.12895 19.0526 4.15727C19.1163 4.18233 19.1659 4.23244 19.2231 4.26839C19.5133 4.43725 19.754 4.68236 19.8835 4.9961C19.9104 5.06473 19.9083 5.13881 19.9255 5.21071C19.9568 5.33163 20 5.44711 20 5.58001V14.2886C20 15.1361 19.3137 15.829 18.4742 15.829Z" fill="black"/>
</svg>
