<svg width="16" height="16" viewBox="0 0 16 16" fill="none" xmlns="http://www.w3.org/2000/svg">
<path fill-rule="evenodd" clip-rule="evenodd" d="M8.00217 2.66634C9.10484 2.66634 10.0022 3.56301 10.0022 4.66634C10.0022 5.76901 9.10484 6.66634 8.00217 6.66634C6.89951 6.66634 6.00217 5.76901 6.00217 4.66634C6.00217 3.56301 6.89951 2.66634 8.00217 2.66634ZM10.8762 8.04567C10.4895 7.83034 10.0748 7.66901 9.63951 7.55167C10.6468 6.97767 11.3355 5.90634 11.3355 4.66634C11.3355 2.82834 9.84017 1.33301 8.00217 1.33301C6.16417 1.33301 4.66884 2.82834 4.66884 4.66634C4.66884 5.90167 5.35217 6.96967 6.35351 7.54567C3.36484 8.32701 2.11351 11.2317 1.36017 13.8163C1.25751 14.1697 1.46017 14.5403 1.81351 14.643C1.87617 14.6617 1.93884 14.6697 2.00017 14.6697C2.28951 14.6697 2.55551 14.481 2.64017 14.1903C3.76817 10.321 5.37151 8.66967 8.00017 8.66967C8.84817 8.66967 9.57551 8.84634 10.2248 9.20967C10.5455 9.38834 10.9522 9.27367 11.1322 8.95301C11.3122 8.63167 11.1968 8.22501 10.8762 8.04567Z" fill="currentColor"/>
<path fill-rule="evenodd" clip-rule="evenodd" d="M8.93237 13.5902L8.93771 14.4849C8.93771 14.5855 9.01971 14.6669 9.12037 14.6669H10.009C10.0577 14.6669 10.1044 14.6475 10.139 14.6129L12.8244 11.9275C12.9297 11.8222 12.9297 11.6515 12.8244 11.5462L12.0364 10.7575C11.9404 10.6615 11.7844 10.6615 11.6884 10.7575L8.98637 13.4602C8.95171 13.4942 8.93237 13.5415 8.93237 13.5902Z" fill="currentColor"/>
<path fill-rule="evenodd" clip-rule="evenodd" d="M13.6276 11.1242L14.6136 10.1382C14.6876 10.0648 14.6876 9.94416 14.6136 9.87016L13.7283 8.98616C13.6549 8.91216 13.5343 8.91216 13.4603 8.98616L12.4749 9.9715C12.4003 10.0455 12.4003 10.1662 12.4749 10.2402L13.3589 11.1242C13.4329 11.1982 13.5536 11.1982 13.6276 11.1242Z" fill="currentColor"/>
</svg>
