<svg width="24" height="24" viewBox="0 0 24 24" fill="none" xmlns="http://www.w3.org/2000/svg">
    <path fill-rule="evenodd" clip-rule="evenodd" d="M12.005 4.00061C13.659 4.00061 15.005 5.34561 15.005 7.00061C15.005 8.65461 13.659 10.0006 12.005 10.0006C10.351 10.0006 9.005 8.65461 9.005 7.00061C9.005 5.34561 10.351 4.00061 12.005 4.00061ZM16.316 12.0694C15.736 11.7464 15.114 11.5044 14.461 11.3284C15.972 10.4674 17.005 8.86037 17.005 7.00037C17.005 4.24337 14.762 2.00037 12.005 2.00037C9.24797 2.00037 7.00497 4.24337 7.00497 7.00037C7.00497 8.85337 8.02997 10.4554 9.53197 11.3194C5.04897 12.4914 3.17197 16.8484 2.04197 20.7254C1.88797 21.2554 2.19197 21.8114 2.72197 21.9654C2.81597 21.9934 2.90997 22.0054 3.00197 22.0054C3.43597 22.0054 3.83497 21.7224 3.96197 21.2864C5.65397 15.4824 8.05897 13.0054 12.002 13.0054C13.274 13.0054 14.365 13.2704 15.339 13.8154C15.82 14.0834 16.43 13.9114 16.7 13.4304C16.97 12.9484 16.797 12.3384 16.316 12.0694Z" fill="currentColor"/>
    <path fill-rule="evenodd" clip-rule="evenodd" d="M12.0017 4.00061C10.3477 4.00061 9.00167 5.34561 9.00167 7.00061C9.00167 8.65461 10.3477 10.0006 12.0017 10.0006C13.6557 10.0006 15.0017 8.65461 15.0017 7.00061C15.0017 5.34561 13.6557 4.00061 12.0017 4.00061ZM7.69071 12.0694C8.27071 11.7464 8.89271 11.5044 9.54571 11.3284C8.03471 10.4674 7.00171 8.86037 7.00171 7.00037C7.00171 4.24337 9.24471 2.00037 12.0017 2.00037C14.7587 2.00037 17.0017 4.24337 17.0017 7.00037C17.0017 8.85337 15.9767 10.4554 14.4747 11.3194C18.9577 12.4914 20.8347 16.8484 21.9647 20.7254C22.1187 21.2554 21.8147 21.8114 21.2847 21.9654C21.1907 21.9934 21.0967 22.0054 21.0047 22.0054C20.5707 22.0054 20.1717 21.7224 20.0447 21.2864C18.3527 15.4824 15.9477 13.0054 12.0047 13.0054C10.7327 13.0054 9.64171 13.2704 8.66771 13.8154C8.18671 14.0834 7.57671 13.9114 7.30671 13.4304C7.03671 12.9484 7.20971 12.3384 7.69071 12.0694Z" fill="currentColor"/>
</svg>
