<svg width="160" height="160" viewBox="0 0 160 160" fill="none" xmlns="http://www.w3.org/2000/svg">
<path d="M66.29 146.58C92.9598 146.58 114.58 124.96 114.58 98.29C114.58 71.6202 92.9598 50 66.29 50C39.6202 50 18 71.6202 18 98.29C18 124.96 39.6202 146.58 66.29 146.58Z" fill="#B0FFC9"/>
<path d="M99.35 125.7C125.501 125.7 146.7 104.501 146.7 78.35C146.7 52.1993 125.501 31 99.35 31C73.1993 31 52 52.1993 52 78.35C52 104.501 73.1993 125.7 99.35 125.7Z" fill="white"/>
<path d="M99.35 125.7C125.501 125.7 146.7 104.501 146.7 78.35C146.7 52.1993 125.501 31 99.35 31C73.1993 31 52 52.1993 52 78.35C52 104.501 73.1993 125.7 99.35 125.7Z" fill="white" stroke="#121312" stroke-width="1.33" stroke-miterlimit="10" stroke-linecap="round" stroke-dasharray="6 6"/>
<path d="M43.57 74.4899C60.0944 74.4899 73.49 61.0943 73.49 44.5699C73.49 28.0455 60.0944 14.6499 43.57 14.6499C27.0457 14.6499 13.65 28.0455 13.65 44.5699C13.65 61.0943 27.0457 74.4899 43.57 74.4899Z" fill="white"/>
<path d="M46.1344 47.5343L45.5344 47.5343L45.5344 48.1343L45.5344 57.5376C45.5344 58.9374 44.3997 60.0721 43 60.0721C41.6003 60.0721 40.4656 58.9374 40.4656 57.5376L40.4656 48.1343L40.4656 47.5343L39.8656 47.5343L30.4622 47.5343C29.0625 47.5343 27.9278 46.3996 27.9278 44.9999C27.9278 43.6001 29.0625 42.4654 30.4622 42.4654L39.8656 42.4654L40.4656 42.4654L40.4656 41.8654L40.4656 32.4621C40.4656 31.0623 41.6003 29.9276 43 29.9276C44.3997 29.9276 45.5344 31.0623 45.5344 32.4621L45.5344 41.8654L45.5344 42.4654L46.1344 42.4654L55.5378 42.4654C56.9375 42.4654 58.0722 43.6001 58.0722 44.9999C58.0722 46.3996 56.9375 47.5343 55.5378 47.5343L46.1344 47.5343Z" stroke="#121312" stroke-width="1.2"/>
<path fill-rule="evenodd" clip-rule="evenodd" d="M43.57 15.3C27.4046 15.3 14.3 28.4046 14.3 44.57C14.3 60.7354 27.4046 73.84 43.57 73.84C59.7354 73.84 72.84 60.7354 72.84 44.57C72.84 28.4046 59.7354 15.3 43.57 15.3ZM13 44.57C13 27.6867 26.6867 14 43.57 14C60.4533 14 74.14 27.6867 74.14 44.57C74.14 61.4533 60.4533 75.14 43.57 75.14C26.6867 75.14 13 61.4533 13 44.57Z" fill="#121312"/>
<g clip-path="url(#clip0_3756_17645)">
<path fill-rule="evenodd" clip-rule="evenodd" d="M79.25 67C79.25 64.9289 80.9289 63.25 83 63.25H117C119.071 63.25 120.75 64.9289 120.75 67V89C120.75 91.0711 119.071 92.75 117 92.75H83C80.9289 92.75 79.25 91.0711 79.25 89V67ZM83 64.75C81.7574 64.75 80.75 65.7574 80.75 67V89C80.75 90.2426 81.7574 91.25 83 91.25H117C118.243 91.25 119.25 90.2426 119.25 89V67C119.25 65.7574 118.243 64.75 117 64.75H83Z" fill="black"/>
<path d="M109 74C109 73.4477 109.448 73 110 73H121C121.552 73 122 73.4477 122 74V82C122 82.5523 121.552 83 121 83H110C109.448 83 109 82.5523 109 82V74Z" fill="white"/>
<path fill-rule="evenodd" clip-rule="evenodd" d="M108.25 74C108.25 73.0335 109.034 72.25 110 72.25H121C121.966 72.25 122.75 73.0335 122.75 74V82C122.75 82.9665 121.966 83.75 121 83.75H110C109.034 83.75 108.25 82.9665 108.25 82V74ZM110 73.75C109.862 73.75 109.75 73.8619 109.75 74V82C109.75 82.1381 109.862 82.25 110 82.25H121C121.138 82.25 121.25 82.1381 121.25 82V74C121.25 73.8619 121.138 73.75 121 73.75H110Z" fill="black"/>
</g>
<defs>
<clipPath id="clip0_3756_17645">
<rect width="43.5" height="29.5" fill="white" transform="translate(79.25 63.25)"/>
</clipPath>
</defs>
</svg>
