<svg width="160" height="160" viewBox="0 0 160 160" fill="none" xmlns="http://www.w3.org/2000/svg">
<path d="M66.29 146.58C92.9598 146.58 114.58 124.96 114.58 98.29C114.58 71.6202 92.9598 50 66.29 50C39.6202 50 18 71.6202 18 98.29C18 124.96 39.6202 146.58 66.29 146.58Z" fill="#B0FFC9"/>
<path d="M99.35 125.7C125.501 125.7 146.7 104.501 146.7 78.35C146.7 52.1993 125.501 31 99.35 31C73.1993 31 52 52.1993 52 78.35C52 104.501 73.1993 125.7 99.35 125.7Z" fill="white"/>
<path d="M99.35 125.7C125.501 125.7 146.7 104.501 146.7 78.35C146.7 52.1993 125.501 31 99.35 31C73.1993 31 52 52.1993 52 78.35C52 104.501 73.1993 125.7 99.35 125.7Z" fill="white" stroke="#121312" stroke-width="1.33" stroke-miterlimit="10" stroke-linecap="round" stroke-dasharray="6 6"/>
<path d="M43.5699 74.4904C60.0943 74.4904 73.4899 61.0947 73.4899 44.5704C73.4899 28.046 60.0943 14.6504 43.5699 14.6504C27.0455 14.6504 13.6499 28.046 13.6499 44.5704C13.6499 61.0947 27.0455 74.4904 43.5699 74.4904Z" fill="white"/>
<path d="M46.1344 47.5343L45.5344 47.5343L45.5344 48.1343L45.5344 57.5376C45.5344 58.9374 44.3997 60.0721 43 60.0721C41.6003 60.0721 40.4656 58.9374 40.4656 57.5376L40.4656 48.1343L40.4656 47.5343L39.8656 47.5343L30.4622 47.5343C29.0625 47.5343 27.9278 46.3996 27.9278 44.9999C27.9278 43.6001 29.0625 42.4654 30.4622 42.4654L39.8656 42.4654L40.4656 42.4654L40.4656 41.8654L40.4656 32.4621C40.4656 31.0623 41.6003 29.9276 43 29.9276C44.3997 29.9276 45.5344 31.0623 45.5344 32.4621L45.5344 41.8654L45.5344 42.4654L46.1344 42.4654L55.5378 42.4654C56.9375 42.4654 58.0722 43.6001 58.0722 44.9999C58.0722 46.3996 56.9375 47.5343 55.5378 47.5343L46.1344 47.5343Z" stroke="#121312" stroke-width="1.2"/>
<path fill-rule="evenodd" clip-rule="evenodd" d="M43.57 15.3C27.4046 15.3 14.3 28.4046 14.3 44.57C14.3 60.7354 27.4046 73.84 43.57 73.84C59.7354 73.84 72.84 60.7354 72.84 44.57C72.84 28.4046 59.7354 15.3 43.57 15.3ZM13 44.57C13 27.6867 26.6867 14 43.57 14C60.4533 14 74.14 27.6867 74.14 44.57C74.14 61.4533 60.4533 75.14 43.57 75.14C26.6867 75.14 13 61.4533 13 44.57Z" fill="#121312"/>
<path fill-rule="evenodd" clip-rule="evenodd" d="M81.7364 80.156C79.7214 82.8744 78.6744 86.1542 78.3343 88.3308C78.2789 88.6855 77.9464 88.9281 77.5917 88.8727C77.2371 88.8172 76.9945 88.4848 77.0499 88.1301C77.4149 85.7939 78.5256 82.3045 80.692 79.3818C82.8703 76.4432 86.1492 74.042 90.8075 74.042C95.4795 74.042 98.6959 76.6532 100.713 79.1915C101.722 80.4624 102.445 81.73 102.915 82.6786C103.15 83.1537 103.323 83.551 103.438 83.8316C103.496 83.972 103.539 84.0833 103.568 84.1608C103.583 84.1996 103.594 84.2299 103.601 84.2511L103.61 84.2761L103.613 84.2834L103.614 84.2857L103.614 84.2865C103.614 84.2869 103.614 84.2871 103 84.4996L103.614 84.2871C103.731 84.6264 103.552 84.9966 103.212 85.1139C102.873 85.2312 102.503 85.0515 102.386 84.7125L102.386 84.7122L102.386 84.7121L102.384 84.7089L102.378 84.6918C102.373 84.676 102.364 84.6512 102.351 84.6181C102.326 84.5519 102.288 84.4526 102.235 84.3248C102.131 84.069 101.97 83.7001 101.75 83.2557C101.309 82.3655 100.633 81.1811 99.6947 80.0002C97.8152 77.6346 94.9354 75.342 90.8075 75.342C86.6658 75.342 83.7395 77.4536 81.7364 80.156Z" fill="#121312"/>
<path d="M100.115 65.8077C100.115 70.9482 95.9482 75.1154 90.8077 75.1154C85.6672 75.1154 81.5 70.9482 81.5 65.8077C81.5 60.6672 85.6672 56.5 90.8077 56.5C95.9482 56.5 100.115 60.6672 100.115 65.8077Z" fill="white"/>
<path fill-rule="evenodd" clip-rule="evenodd" d="M90.8077 73.7854C95.2137 73.7854 98.7854 70.2137 98.7854 65.8077C98.7854 61.4017 95.2137 57.83 90.8077 57.83C86.4017 57.83 82.83 61.4017 82.83 65.8077C82.83 70.2137 86.4017 73.7854 90.8077 73.7854ZM90.8077 75.1154C95.9482 75.1154 100.115 70.9482 100.115 65.8077C100.115 60.6672 95.9482 56.5 90.8077 56.5C85.6672 56.5 81.5 60.6672 81.5 65.8077C81.5 70.9482 85.6672 75.1154 90.8077 75.1154Z" fill="#121312"/>
<path fill-rule="evenodd" clip-rule="evenodd" d="M101.544 87.656C99.5295 90.3744 98.4825 93.6542 98.1424 95.8308C98.087 96.1855 97.7545 96.4281 97.3998 96.3727C97.0452 96.3172 96.8026 95.9848 96.858 95.6301C97.223 93.2939 98.3337 89.8045 100.5 86.8818C102.678 83.9432 105.957 81.542 110.616 81.542C115.271 81.542 118.617 83.9399 120.882 86.8715C123.136 89.7897 124.355 93.2755 124.793 95.6107C124.859 95.9635 124.627 96.3032 124.274 96.3693C123.921 96.4355 123.581 96.2031 123.515 95.8502C123.107 93.6726 121.957 90.3892 119.853 87.6663C117.76 84.9569 114.76 82.842 110.616 82.842C106.474 82.842 103.548 84.9536 101.544 87.656Z" fill="#121312"/>
<path d="M119.923 73.3077C119.923 78.4482 115.756 82.6154 110.616 82.6154C105.475 82.6154 101.308 78.4482 101.308 73.3077C101.308 68.1672 105.475 64 110.616 64C115.756 64 119.923 68.1672 119.923 73.3077Z" fill="white"/>
<path fill-rule="evenodd" clip-rule="evenodd" d="M110.616 81.2854C115.022 81.2854 118.593 77.7137 118.593 73.3077C118.593 68.9017 115.022 65.33 110.616 65.33C106.21 65.33 102.638 68.9017 102.638 73.3077C102.638 77.7137 106.21 81.2854 110.616 81.2854ZM110.616 82.6154C115.756 82.6154 119.923 78.4482 119.923 73.3077C119.923 68.1672 115.756 64 110.616 64C105.475 64 101.308 68.1672 101.308 73.3077C101.308 78.4482 105.475 82.6154 110.616 82.6154Z" fill="#121312"/>
</svg>
