<svg width="141" height="141" viewBox="0 0 141 141" fill="none" xmlns="http://www.w3.org/2000/svg">
<g clip-path="url(#clip0_13672_21587)">
<path opacity="0.997" d="M70.9392 140.132C109.458 140.132 140.683 108.907 140.683 70.3885C140.683 31.87 109.458 0.644531 70.9392 0.644531C32.4207 0.644531 1.19531 31.87 1.19531 70.3885C1.19531 108.907 32.4207 140.132 70.9392 140.132Z" fill="#7293A0"/>
<path opacity="0.997" d="M70.9078 40.3106C62.936 40.319 55.2936 43.4917 49.6597 49.1315C44.0258 54.7714 40.8613 62.417 40.8613 70.3887C40.8613 74.3386 41.6393 78.2499 43.1509 81.8991C44.6624 85.5484 46.878 88.8642 49.6711 91.6572C52.4641 94.4502 55.78 96.6657 59.4293 98.1773C63.0786 99.6889 66.9899 100.467 70.9399 100.467C78.9171 100.467 86.5675 97.2976 92.2082 91.6569C97.8488 86.0161 101.018 78.3657 101.018 70.3887C101.018 62.4116 97.8488 54.7612 92.2082 49.1205C86.5675 43.4798 78.9171 40.3107 70.9399 40.3106C70.9292 40.3105 70.9185 40.3105 70.9078 40.3106ZM70.94 42.8607C78.2409 42.8608 85.2428 45.7611 90.4054 50.9236C95.5679 56.086 98.4683 63.0878 98.4684 70.3887C98.4685 74.0038 97.7565 77.5835 96.3731 80.9234C94.9897 84.2634 92.962 87.2981 90.4057 89.8544C87.8494 92.4107 84.8147 94.4385 81.4748 95.822C78.1348 97.2055 74.5551 97.9176 70.9399 97.9176C67.3247 97.9177 63.7449 97.2057 60.4048 95.8223C57.0647 94.4388 54.0299 92.4111 51.4735 89.8548C48.9172 87.2984 46.8894 84.2636 45.5059 80.9236C44.1225 77.5836 43.4105 74.0038 43.4105 70.3887C43.4106 66.7736 44.1227 63.1939 45.5062 59.854C46.8897 56.5141 48.9175 53.4794 51.4739 50.9232C54.0302 48.367 57.065 46.3393 60.405 44.9559C63.745 43.5726 67.3248 42.8606 70.94 42.8607Z" fill="white"/>
<path opacity="0.997" d="M70.8991 32.1074C60.7532 32.1182 51.0265 36.1562 43.8561 43.3341C36.6857 50.5121 32.6581 60.2429 32.6582 70.3887C32.6582 75.4158 33.6483 80.3938 35.5722 85.0383C37.496 89.6828 40.3158 93.9029 43.8706 97.4577C47.4254 101.012 51.6456 103.832 56.2902 105.756C60.9348 107.68 65.9128 108.67 70.9401 108.67C81.0929 108.67 90.8297 104.636 98.0087 97.4573C105.188 90.2782 109.221 80.5413 109.221 70.3887C109.221 60.236 105.188 50.4992 98.0087 43.3201C90.8297 36.141 81.0929 32.1077 70.9401 32.1074C70.9264 32.1074 70.9128 32.1074 70.8991 32.1074ZM70.9401 35.353C80.2323 35.3532 89.1438 39.0445 95.7143 45.6149C102.285 52.1853 105.976 61.0967 105.976 70.3887C105.976 74.9897 105.07 79.5457 103.31 83.7965C101.549 88.0474 98.9681 91.9098 95.7147 95.1632C92.4613 98.4167 88.5989 100.998 84.348 102.758C80.0972 104.519 75.5412 105.425 70.9401 105.426C66.3389 105.426 61.7827 104.519 57.5317 102.759C53.2807 100.998 49.4182 98.4172 46.1647 95.1637C42.9111 91.9102 40.3303 88.0477 38.5695 83.7968C36.8088 79.5459 35.9026 74.9898 35.9027 70.3887C35.9027 65.7876 36.809 61.2317 38.5699 56.9809C40.3307 52.7301 42.9116 48.8678 46.1651 45.6144C49.4186 42.3611 53.2811 39.7804 57.532 38.0197C61.7829 36.2591 66.339 35.3529 70.9401 35.353Z" fill="white"/>
<path opacity="0.997" d="M70.8904 23.9043C58.5704 23.9174 46.7595 28.8206 38.0526 37.5367C29.3457 46.2528 24.455 58.0688 24.4551 70.3887C24.455 76.4931 25.6574 82.5378 27.9935 88.1775C30.3295 93.8173 33.7536 98.9417 38.0702 103.258C42.3867 107.575 47.5112 110.999 53.1511 113.335C58.7909 115.671 64.8357 116.873 70.9402 116.873C83.2686 116.873 95.0919 111.975 103.809 103.258C112.527 94.5402 117.424 82.7169 117.424 70.3887C117.424 58.0605 112.527 46.2372 103.809 37.5197C95.0919 28.8022 83.2686 23.9046 70.9402 23.9043C70.9236 23.9043 70.9071 23.9043 70.8904 23.9043ZM70.9403 27.8454C82.2236 27.8456 93.0447 32.3279 101.023 40.3062C109.002 48.2846 113.484 59.1056 113.484 70.3887C113.484 75.9756 112.384 81.5079 110.246 86.6696C108.108 91.8314 104.974 96.5214 101.024 100.472C97.0731 104.423 92.383 107.557 87.2213 109.695C82.0596 111.833 76.5273 112.933 70.9402 112.933C65.353 112.934 59.8205 111.833 54.6586 109.695C49.4967 107.557 44.8065 104.423 40.8558 100.473C36.9051 96.522 33.7712 91.8318 31.6331 86.67C29.4951 81.5082 28.3947 75.9758 28.3948 70.3887C28.3949 64.8017 29.4954 59.2695 31.6335 54.1078C33.7717 48.9462 36.9056 44.2562 40.8563 40.3057C44.807 36.3552 49.4972 33.2215 54.659 31.0835C59.8208 28.9456 65.3532 27.8453 70.9403 27.8454Z" fill="white"/>
<path opacity="0.997" d="M95.1309 58.418V82.3604H127.937V82.2022C128.072 82.307 128.208 82.3599 128.345 82.3604C128.677 82.3604 129.006 82.0508 129.313 81.4492C129.62 80.8476 129.899 79.9658 130.134 78.8541C130.369 77.7425 130.556 76.4228 130.683 74.9704C130.81 73.518 130.875 71.9613 130.875 70.3892C130.875 67.2142 130.609 64.1693 130.134 61.9243C129.66 59.6792 129.016 58.418 128.345 58.418C128.208 58.4185 128.072 58.4714 127.937 58.5762V58.418H95.1309Z" fill="#7293A0"/>
<path opacity="0.997" d="M70.9394 92.2637C83.0207 92.2637 92.8144 82.4699 92.8144 70.3887C92.8144 58.3074 83.0207 48.5137 70.9394 48.5137C58.8582 48.5137 49.0645 58.3074 49.0645 70.3887C49.0645 82.4699 58.8582 92.2637 70.9394 92.2637Z" fill="white"/>
</g>
<defs>
<clipPath id="clip0_13672_21587">
<rect width="140" height="140" fill="white" transform="translate(0.75 0.75)"/>
</clipPath>
</defs>
</svg>
